<?xml version="1.0" standalone="no"?>
<!DOCTYPE svg PUBLIC "-//W3C//DTD SVG 20010904//EN"
 "http://www.w3.org/TR/2001/REC-SVG-20010904/DTD/svg10.dtd">
<svg version="1.0" xmlns="http://www.w3.org/2000/svg"
 width="2400.000000pt" height="2400.000000pt" viewBox="0 0 2400.000000 2400.000000"
 preserveAspectRatio="xMidYMid meet">

<g transform="translate(0.000000,2400.000000) scale(0.100000,-0.100000)"
fill="#000000" stroke="none">
<path d="M11805 22921 c-73 -44 -110 -110 -190 -341 -90 -257 -185 -467 -323
-710 -159 -281 -361 -621 -562 -945 -430 -695 -536 -883 -620 -1105 -143 -375
-521 -1214 -1043 -2315 -216 -456 -783 -1794 -1104 -2604 -265 -670 -406
-1074 -443 -1271 -111 -590 -546 -1661 -819 -2015 -111 -144 -278 -295 -470
-424 -49 -33 -180 -113 -292 -177 -469 -270 -1345 -844 -1769 -1159 -123 -91
-234 -159 -565 -345 -432 -243 -555 -332 -592 -429 -15 -38 -18 -76 -17 -216
0 -187 16 -289 76 -474 55 -174 103 -254 294 -496 320 -406 447 -611 488 -785
25 -103 21 -129 -31 -227 -121 -228 -123 -234 -123 -284 l0 -48 149 -157 148
-156 6 -126 c13 -259 30 -903 24 -908 -3 -4 -111 -10 -239 -13 l-233 -7 -262
-149 c-254 -144 -263 -150 -263 -179 0 -17 -9 -69 -20 -116 -41 -179 -27 -235
84 -346 171 -170 494 -341 782 -414 172 -44 348 -55 652 -40 139 7 261 13 270
14 12 1 18 -11 23 -44 4 -25 26 -173 48 -330 87 -600 138 -849 230 -1130 62
-186 173 -467 218 -550 127 -235 384 -456 630 -541 200 -69 572 -64 808 11 97
32 115 42 480 262 349 211 695 410 1070 616 353 193 974 460 1420 610 522 176
968 263 1491 293 286 16 1202 17 1389 1 619 -52 1040 -162 1475 -382 293 -149
581 -353 1260 -891 567 -450 742 -574 965 -684 201 -100 354 -135 585 -135
410 0 895 172 1116 397 175 178 320 509 478 1085 59 216 61 231 95 533 39 342
61 437 118 513 48 64 130 79 235 43 164 -56 454 -49 696 19 271 76 753 332
1054 561 201 154 328 342 328 488 0 103 -60 154 -231 201 -82 22 -334 65 -440
75 l-66 6 -6 162 c-14 358 -96 558 -359 879 l-96 116 52 514 c28 282 56 520
61 528 5 8 216 259 468 558 l459 544 14 91 c39 258 -6 524 -116 691 -89 134
-407 424 -1245 1137 -288 245 -934 788 -1157 972 -95 79 -107 93 -113 128 -11
62 -68 167 -133 244 -62 74 -139 141 -312 270 -174 130 -479 376 -585 472
-164 148 -188 184 -308 488 -234 589 -443 1241 -468 1463 -22 194 -202 543
-553 1072 -82 124 -168 263 -192 310 -88 177 -227 560 -323 895 -92 317 -102
348 -158 475 -31 69 -150 321 -266 560 -309 641 -335 701 -413 955 -85 279
-213 571 -340 776 -30 49 -96 142 -146 206 -416 536 -651 929 -718 1199 -50
203 -101 332 -225 572 -96 183 -227 400 -318 525 -127 174 -163 229 -268 407
-204 350 -337 539 -455 649 -104 97 -182 123 -249 82z m-628 -8307 c180 -47
290 -171 301 -340 30 -474 -667 -1057 -1263 -1057 -164 1 -285 43 -372 129
-292 292 74 916 694 1184 229 99 465 130 640 84z m-2291 -1492 c2 -481 193
-1061 472 -1442 76 -103 272 -301 421 -426 630 -528 1466 -797 2396 -771 870
24 1620 340 2268 957 127 120 300 319 370 425 191 290 330 764 384 1310 l8 80
430 -4 c237 -2 440 -7 451 -12 58 -21 498 -1128 689 -1734 123 -392 242 -876
565 -2305 440 -1946 681 -3230 740 -3935 28 -332 28 -1201 0 -1617 -38 -570
-110 -1071 -191 -1324 -61 -192 -171 -369 -307 -495 -259 -240 -627 -250
-1086 -30 -286 136 -512 290 -1101 746 -185 144 -323 230 -623 389 -657 348
-1432 633 -2041 751 -317 61 -421 69 -876 70 -428 0 -536 -6 -860 -46 -395
-48 -803 -137 -1204 -260 -221 -68 -382 -130 -656 -252 -417 -185 -1608 -794
-2081 -1063 -282 -161 -462 -251 -577 -288 -322 -105 -549 -22 -689 250 -93
181 -153 431 -235 984 -21 139 -23 595 -4 870 57 836 201 1912 337 2530 38
172 157 643 230 915 186 686 677 2366 806 2755 183 555 1044 3030 1060 3045 2
3 166 18 363 34 198 17 378 32 400 34 22 2 63 4 90 5 l50 2 1 -148z m9310
-2436 c233 -111 696 -434 1059 -737 191 -159 495 -455 608 -592 165 -199 276
-384 312 -522 51 -196 -34 -528 -202 -790 -99 -154 -272 -344 -403 -442 l-55
-41 -70 10 c-151 21 -325 -3 -399 -55 -46 -33 -83 -128 -116 -297 -42 -217
-59 -240 -185 -240 -76 1 -282 33 -296 47 -12 12 -112 293 -250 703 -268 794
-392 1266 -405 1542 -7 136 9 429 32 608 21 166 68 390 105 500 55 168 147
340 182 340 7 0 44 -15 83 -34z m-12368 -376 c79 -40 164 -132 208 -225 55
-115 60 -272 18 -525 -28 -167 -218 -904 -513 -1989 -67 -244 -121 -445 -121
-447 0 -2 -39 -4 -87 -4 l-88 0 -199 188 -199 189 -191 -44 c-105 -24 -198
-43 -206 -43 -16 1 -809 1071 -847 1143 -27 52 -60 149 -68 202 -3 23 1 63 9
95 18 70 48 96 276 248 212 140 590 405 1210 847 256 182 477 340 493 350 47
31 100 44 173 45 59 0 81 -5 132 -30z"/>
<path d="M18940 3155 l0 -175 85 0 85 0 2 -367 3 -368 158 -3 157 -3 0 371 0
370 90 0 90 0 0 175 0 175 -335 0 -335 0 0 -175z"/>
<path d="M19776 3308 c-9 -41 -136 -1022 -136 -1045 0 -23 1 -23 149 -23 146
0 149 0 154 23 3 12 16 147 28 300 13 153 24 274 25 270 1 -4 33 -140 70 -301
l68 -293 95 3 95 3 52 210 c29 116 61 253 70 305 10 52 19 91 20 85 2 -5 12
-120 24 -255 11 -135 23 -269 26 -297 l6 -53 155 0 155 0 -6 38 c-3 20 -33
253 -66 517 -33 264 -63 492 -66 508 l-6 27 -162 0 -163 0 -43 -167 c-48 -191
-80 -340 -81 -386 0 -18 -16 41 -34 129 -18 89 -48 221 -65 293 l-32 131 -164
0 c-162 0 -164 0 -168 -22z"/>
</g>
</svg>
