<?xml version="1.0" encoding="UTF-8"?>
<svg version="1.1" xmlns="http://www.w3.org/2000/svg" width="256" height="256">
<path d="M0 0 C0.86389412 -0.00367669 1.72778824 -0.00735338 2.61786097 -0.01114148 C5.52972634 -0.02220651 8.44155606 -0.02602691 11.35343933 -0.02983093 C13.4342663 -0.0360934 15.51509214 -0.04274 17.59591675 -0.04974365 C23.26123872 -0.0671723 28.92655224 -0.07771026 34.59189439 -0.08594918 C38.12874579 -0.09109483 41.66559454 -0.09717073 45.20244408 -0.10346031 C56.26079334 -0.12251662 67.31913591 -0.13674746 78.37749845 -0.14507228 C91.15691112 -0.15485071 103.93615085 -0.18118428 116.71550256 -0.22157317 C126.58390605 -0.25169554 136.45225986 -0.26653742 146.32070845 -0.26985329 C152.21913069 -0.272208 158.11736828 -0.2812232 164.01574135 -0.30631447 C169.56349764 -0.32953263 175.11094688 -0.3338536 180.65873909 -0.32355309 C182.69653594 -0.32305611 184.73434758 -0.329424 186.77209854 -0.34310913 C189.55131784 -0.36073161 192.32942363 -0.35376958 195.10864258 -0.34057617 C196.32207147 -0.35703004 196.32207147 -0.35703004 197.56001407 -0.37381631 C201.33368925 -0.33047928 203.511382 -0.0022174 206.72205639 2.05265522 C210.43367065 5.89597335 209.89565494 9.47443228 209.8986969 14.55422974 C209.90527028 15.87457223 209.90527028 15.87457223 209.91197646 17.22158831 C209.92539483 20.18872801 209.9315501 23.15583799 209.93766785 26.1230011 C209.94556634 28.24323665 209.95383514 30.36347085 209.96244812 32.48370361 C209.98869476 39.46135672 210.00397717 46.43901592 210.01823425 53.41670227 C210.02359262 55.81565035 210.02897012 58.21459838 210.03436661 60.61354637 C210.05599811 70.58938609 210.07473646 80.56522418 210.085989 90.54108143 C210.1022387 104.85459206 210.13543839 119.16783166 210.19238985 133.48124009 C210.23103957 143.53647713 210.25061574 153.59164151 210.25590956 163.6469509 C210.25956947 169.65720093 210.27165897 175.66716207 210.3040123 181.67733192 C210.33400577 187.33019131 210.34043581 192.98258569 210.32862854 198.63550758 C210.32840708 200.71201304 210.33677143 202.78853953 210.35428238 204.86497116 C210.37686782 207.69693269 210.36872854 210.52719283 210.35279846 213.35916138 C210.36668055 214.18367776 210.38056264 215.00819415 210.39486539 215.85769588 C210.33475955 220.18506402 210.1402803 221.67001058 207.26929665 225.13392162 C206.0196692 226.13048007 206.0196692 226.13048007 204.74479675 227.14717102 C204.41479675 227.47717102 204.08479675 227.80717102 203.74479675 228.14717102 C201.02510303 228.25613041 198.33041805 228.29941681 195.60984802 228.30107117 C194.74680833 228.30545342 193.88376863 228.30983567 192.99457622 228.31435072 C190.07960856 228.32779024 187.16467116 228.3339291 184.24967957 228.34004211 C182.16899985 228.34793905 180.08832152 228.35620774 178.00764465 228.36482239 C171.15441708 228.39109051 164.30118325 228.4063551 157.44792175 228.42060852 C155.09262335 228.42596629 152.73732499 228.43134379 150.38202667 228.43674088 C140.58723099 228.4583769 130.79243699 228.47711493 120.99762344 228.48836327 C106.94076872 228.5046098 92.88419014 228.53779663 78.82743955 228.59476411 C68.95481139 228.63341598 59.08225724 228.65299035 49.20955539 228.65828383 C43.30771746 228.66194389 37.40617371 228.67403466 31.50441742 228.70638657 C25.95252428 228.73638327 20.4011046 228.74280893 14.8491478 228.73100281 C12.80973169 228.73078137 10.77029415 228.73914439 8.73095322 228.75665665 C5.94928734 228.77924577 3.16935315 228.77110121 0.38768005 228.75517273 C-0.42195466 228.76905482 -1.23158937 228.7829369 -2.06575847 228.79723966 C-6.20753663 228.73868716 -8.00091276 228.3585759 -11.23288345 225.67167091 C-12.23393175 224.42204347 -12.23393175 224.42204347 -13.25520325 223.14717102 C-13.58520325 222.81717102 -13.91520325 222.48717102 -14.25520325 222.14717102 C-14.36197392 219.37695225 -14.40298673 216.63136281 -14.40237427 213.86036682 C-14.40605096 212.98099292 -14.40972764 212.10161901 -14.41351575 211.19559741 C-14.4245992 208.22534795 -14.42840429 205.25513342 -14.4322052 202.28486633 C-14.43846635 200.16477852 -14.44511283 198.04469181 -14.45211792 195.92460632 C-14.46956054 190.14765838 -14.48008859 184.37071873 -14.48832345 178.59375095 C-14.49346677 174.98772346 -14.4995428 171.38169857 -14.50583458 167.77567291 C-14.52489588 156.50267792 -14.53912492 145.22968951 -14.54744655 133.95668149 C-14.55722294 120.926528 -14.58354912 107.89654422 -14.62394744 94.86645055 C-14.65406956 84.80698602 -14.66891172 74.74757024 -14.67222756 64.68806148 C-14.67458257 58.67448967 -14.68360138 52.66109896 -14.70868874 46.64757538 C-14.73190607 40.9906709 -14.73622819 35.33406755 -14.72592735 29.67712784 C-14.72543033 27.5990181 -14.73179946 25.52089387 -14.7454834 23.44282913 C-14.76310312 20.60882512 -14.75614507 17.7759134 -14.74295044 14.94190979 C-14.75391969 14.11671129 -14.76488893 13.29151278 -14.77619058 12.44130826 C-14.73151793 8.47558084 -14.53735271 6.58948838 -12.34971905 3.15999985 C-8.53270951 -0.50814476 -5.03556745 -0.0011382 0 0 Z " fill="#26557C" transform="translate(30.255203247070313,15.852828979492188)"/>
<path d="M0 0 C4.41493034 1.2078583 8.2880313 2.79164477 12.296875 4.9921875 C16.48391959 7.20731156 20.32101151 8.12631499 24.984375 8.9296875 C36.27659369 10.96729551 44.99991272 16.06918822 53.609375 23.4921875 C54.42148438 24.183125 55.23359375 24.8740625 56.0703125 25.5859375 C72.30034206 39.76848641 83.93898886 56.28485461 90.421875 76.88671875 C93.68546684 84.04729689 98.53840858 86.89777576 105.296875 90.3046875 C112.67760467 94.21705982 118.82687733 98.38051539 124.609375 104.4921875 C125.31964844 105.24113281 126.02992188 105.99007812 126.76171875 106.76171875 C131.609375 112.08934097 131.609375 112.08934097 131.609375 114.4921875 C125.65640942 117.92659072 119.27259344 117.62545187 112.609375 117.4921875 C116.00772713 121.03991775 119.49950476 124.00015099 123.484375 126.8671875 C135.82210319 136.02540251 135.82210319 136.02540251 137.546875 141.4296875 C137.5778125 142.450625 137.5778125 142.450625 137.609375 143.4921875 C124.58428241 138.69875265 107.0945114 129.41296028 99.609375 117.4921875 C99.546875 115.3046875 99.546875 115.3046875 100.609375 113.4921875 C103.80746614 110.5612223 106.48242008 109.941776 110.734375 109.3671875 C114.81109422 108.87835469 114.81109422 108.87835469 118.609375 107.4921875 C113.22966304 103.95833608 107.99935194 101.15166137 101.921875 98.9921875 C88.09212323 93.79388502 83.65981414 82.68243144 77.421875 70.078125 C76.85549316 68.9344043 76.28911133 67.79068359 75.70556641 66.61230469 C74.57839051 64.32341815 73.46050253 62.02992868 72.35302734 59.73144531 C69.2827148 53.45173045 66.03467105 47.89936619 61.609375 42.4921875 C60.99320312 41.63496094 60.37703125 40.77773437 59.7421875 39.89453125 C56.68783952 36.45419424 53.15391405 33.81105089 49.484375 31.0546875 C48.72753418 30.48137695 47.97069336 29.90806641 47.19091797 29.31738281 C35.50620209 20.39369005 35.50620209 20.39369005 21.546875 17.3046875 C15.45898326 16.89792413 11.76292228 15.30584911 6.76171875 11.92578125 C2.72830376 9.23927798 -0.60298743 8.4921875 -5.390625 8.4921875 C-4.85915961 12.85332997 -3.35047143 15.20441098 -0.640625 18.6171875 C2.69009864 23.05224681 5.09569211 27.28905652 7.25390625 32.37890625 C8.96946358 36.31924974 10.8716954 40.15088493 12.796875 43.9921875 C13.14234375 44.68723389 13.4878125 45.38228027 13.84375 46.09838867 C15.30681534 49.01770606 16.7956047 51.77153206 18.609375 54.4921875 C18.23433379 57.77247753 17.20465139 60.60906317 16.046875 63.6796875 C14.5127321 68.69777069 14.27728933 73.47327821 14.234375 78.6796875 C14.22075928 79.43983154 14.20714355 80.19997559 14.19311523 80.9831543 C14.23458969 86.19473269 15.27567743 89.83096616 17.609375 94.4921875 C18.269375 94.4921875 18.929375 94.4921875 19.609375 94.4921875 C19.85171875 93.68394531 20.0940625 92.87570313 20.34375 92.04296875 C23.67264389 81.42891861 23.67264389 81.42891861 27.609375 77.4921875 C31.32469588 78.94763797 32.62856199 80.67220307 34.5625 84.11328125 C35.09593018 85.04430664 35.62936035 85.97533203 36.17895508 86.93457031 C36.73349365 87.92295898 37.28803223 88.91134766 37.859375 89.9296875 C42.00862441 97.16559506 46.17199391 104.08770034 51.31640625 110.6640625 C52.609375 112.4921875 52.609375 112.4921875 52.609375 114.4921875 C42.90612757 110.19694265 36.33703167 101.05167443 30.609375 92.4921875 C28.47908252 95.4676519 28.47908252 95.4676519 27.171875 99.0546875 C25.609375 102.4921875 25.609375 102.4921875 22.609375 104.4921875 C19.671875 104.4296875 19.671875 104.4296875 16.609375 103.4921875 C9.56489047 95.9243984 8.25499032 86.15234855 8.234375 76.1796875 C8.23276367 75.43952393 8.23115234 74.69936035 8.22949219 73.93676758 C8.33198299 68.84582189 9.29811802 64.40545159 10.609375 59.4921875 C10.51011225 54.72757531 8.72108053 51.96170569 6.109375 48.06640625 C4.58558634 45.45136269 3.44550941 42.7815123 2.31347656 39.97851562 C-1.11093413 31.51630876 -5.53786567 24.60242766 -11.1328125 17.40625 C-14.73227244 12.76058025 -15.09887646 9.27110883 -14.390625 3.4921875 C-11.10627449 -2.11857795 -5.61841767 -1.19345473 0 0 Z " fill="#F6F8F9" transform="translate(70.390625,56.5078125)"/>
<path d="M0 0 C1.29968609 -0.00935994 1.29968609 -0.00935994 2.62562847 -0.01890898 C5.52844659 -0.03486145 8.43042763 -0.02222589 11.33325195 -0.00964355 C13.41452525 -0.01506366 15.49579471 -0.0221857 17.57705688 -0.03088379 C23.22990433 -0.04913316 28.88246005 -0.04204283 34.53531265 -0.02936745 C40.448029 -0.01924821 46.36072018 -0.02863014 52.2734375 -0.03491211 C62.20325205 -0.04219164 72.13294764 -0.03259274 82.06274414 -0.0135498 C93.54685467 0.00821944 105.03068116 0.00116829 116.51478481 -0.02085543 C126.37053327 -0.03900066 136.22619615 -0.04157201 146.08195591 -0.03110075 C151.97024251 -0.02486103 157.85839554 -0.02404343 163.74667358 -0.0372467 C169.28220304 -0.04879174 174.81736588 -0.04080381 180.35285568 -0.01766968 C182.38580084 -0.01237543 184.41877679 -0.01390856 186.45170975 -0.02272034 C189.22424677 -0.03363099 191.99560476 -0.01996643 194.76806641 0 C195.97842576 -0.01338433 195.97842576 -0.01338433 197.21323681 -0.02703905 C200.98011237 0.02567733 203.15631422 0.36203318 206.36003113 2.41468048 C208.96014653 5.10375984 209.37101049 5.85679888 209.4465332 9.63293457 C209.4259082 10.58168457 209.4052832 11.53043457 209.3840332 12.50793457 C208.8271582 11.72418457 208.2702832 10.94043457 207.6965332 10.13293457 C204.27633218 6.25054421 201.68079879 5.59553646 196.53434753 5.24787235 C194.99627024 5.23301433 193.45806377 5.22908568 191.91992188 5.23377991 C191.06979869 5.22854323 190.2196755 5.22330655 189.34379101 5.21791118 C186.49648033 5.20291473 183.64934941 5.20220612 180.80200195 5.20153809 C178.76013892 5.19391655 176.71827877 5.18548906 174.67642212 5.17631531 C169.13109925 5.15436729 163.58583152 5.14557138 158.04047012 5.14048886 C154.57713414 5.13684671 151.11381264 5.13060749 147.65048218 5.12348747 C135.57175053 5.09899529 123.49306185 5.08594085 111.41430664 5.08239746 C100.14830104 5.0787588 88.88256731 5.04883904 77.61664486 5.00699288 C67.94774659 4.97233524 58.27893866 4.95684983 48.60997868 4.95615143 C42.83340843 4.95535729 37.0571153 4.94655542 31.28060913 4.91815376 C25.85011621 4.89204968 20.42013176 4.88972513 14.98960495 4.9058094 C12.99534373 4.90762979 11.00105376 4.90088024 9.00685501 4.88499069 C6.28667775 4.86463564 3.56829744 4.87501893 0.84814453 4.89320374 C0.05680209 4.88000377 -0.73454035 4.8668038 -1.54986286 4.85320383 C-5.6368235 4.91572284 -7.36312736 5.29236677 -10.51997375 7.98385525 C-11.21165146 8.81680142 -11.90332916 9.6497476 -12.6159668 10.50793457 C-13.6059668 11.00293457 -13.6059668 11.00293457 -14.6159668 11.50793457 C-14.25230511 5.20446535 -14.25230511 5.20446535 -11.60368347 2.30530548 C-7.71907975 -0.03162084 -4.4009033 -0.04866583 0 0 Z " fill="#3A6588" transform="translate(30.615966796875,15.4920654296875)"/>
<path d="M0 0 C0.598125 0.78375 1.19625 1.5675 1.8125 2.375 C3.91085249 5.14574323 3.91085249 5.14574323 7 7 C9.7870074 7.19596152 12.4740881 7.27384748 15.26156616 7.26069641 C16.11406405 7.26452196 16.96656194 7.26834751 17.8448931 7.27228898 C20.71224989 7.28263881 23.57940718 7.27862307 26.44677734 7.2746582 C28.49819627 7.27900361 30.54961357 7.28418618 32.60102844 7.29014587 C38.18160526 7.30356628 43.76211448 7.30411111 49.3427043 7.30158257 C53.99740892 7.30051482 58.65209976 7.30539127 63.30680144 7.310188 C74.28657598 7.32129393 85.26631631 7.32171463 96.24609375 7.31567383 C107.58128825 7.30963345 118.91635864 7.32194425 130.25153196 7.3432439 C139.97558967 7.36084574 149.69960784 7.36686345 159.4236809 7.36360615 C165.23485411 7.36179073 171.04593881 7.36445524 176.85709763 7.37832069 C182.32194404 7.39087117 187.7865967 7.38898125 193.25144005 7.37590981 C195.25858945 7.37353832 197.26575236 7.37629908 199.27288628 7.38453293 C202.01030623 7.39495383 204.7470705 7.3869372 207.48446655 7.3742218 C208.28106418 7.38159609 209.07766181 7.38897037 209.89839876 7.39656812 C214.4508087 7.35200137 217.37544531 6.80991478 221 4 C222.78344178 1.93045153 222.78344178 1.93045153 224 0 C224.3125 2.6875 224.3125 2.6875 224 6 C221.5625 8.8125 221.5625 8.8125 219 11 C218.67 11.33 218.34 11.66 218 12 C215.28030627 12.10895939 212.5856213 12.15224579 209.86505127 12.15390015 C209.00201157 12.1582824 208.13897188 12.16266465 207.24977946 12.1671797 C204.33481181 12.18061922 201.41987441 12.18675808 198.50488281 12.19287109 C196.4242031 12.20076803 194.34352477 12.20903672 192.2628479 12.21765137 C185.40962033 12.24391949 178.5563865 12.25918408 171.703125 12.2734375 C169.34782659 12.27879527 166.99252823 12.28417277 164.63722992 12.28956985 C154.84243424 12.31120588 145.04764024 12.32994391 135.25282669 12.34119225 C121.19597197 12.35743878 107.13939339 12.39062561 93.08264279 12.44759309 C83.21001464 12.48624495 73.33746049 12.50581933 63.46475863 12.51111281 C57.56292071 12.51477287 51.66137696 12.52686364 45.75962067 12.55921555 C40.20772753 12.58921224 34.65630785 12.59563791 29.10435104 12.58383179 C27.06493493 12.58361035 25.0254974 12.59197337 22.98615646 12.60948563 C20.20449059 12.63207475 17.4245564 12.62393019 14.6428833 12.60800171 C13.83324859 12.6218838 13.02361388 12.63576588 12.18944478 12.65006864 C8.04766662 12.59151614 6.25429049 12.21140488 3.02231979 9.52449989 C2.35495426 8.69141493 1.68758873 7.85832996 1 7 C0.67 6.67 0.34 6.34 0 6 C-0.04080783 4.00041636 -0.04254356 1.99954746 0 0 Z " fill="#000000" transform="translate(16,232)"/>
<path d="M0 0 C7.54654798 0.3211297 13.80730609 3.87153739 20 8 C22.01615112 8.17248979 24.03950241 8.26668718 26.0625 8.3125 C41.46099642 9.39785658 57.92131915 22.81090286 67.9609375 34.23046875 C68.66089844 35.19919922 68.66089844 35.19919922 69.375 36.1875 C69.85710937 36.84105469 70.33921875 37.49460938 70.8359375 38.16796875 C72 40 72 40 73 43 C70 43 70 43 68.52734375 41.56640625 C68.00269531 40.90511719 67.47804688 40.24382812 66.9375 39.5625 C58.30048686 29.36975158 45.94107003 18.31369001 33 14 C30.97964847 13.923493 28.95866658 13.86308939 26.9375 13.8125 C20.8649124 13.40855847 17.38524672 11.82413445 12.43359375 8.43359375 C8.5412718 6.14068499 4.43555142 5.54736592 0 5 C-0.5625 3.0625 -0.5625 3.0625 -1 1 C-0.67 0.67 -0.34 0.34 0 0 Z " fill="#264B69" transform="translate(65,64)"/>
<path d="M0 0 C0.845625 0.78375 1.69125 1.5675 2.5625 2.375 C11.85237071 10.31634109 22.60258623 16.52436393 33.26953125 22.40625 C36 24 36 24 38 26 C38 26.99 38 27.98 38 29 C32.79027227 27.50332783 28.4412225 25.18123651 23.8125 22.4375 C23.06653564 21.99639893 22.32057129 21.55529785 21.55200195 21.10083008 C13.47447552 16.22329038 5.49917743 10.81462055 0 3 C0 2.01 0 1.02 0 0 Z " fill="#254A69" transform="translate(170,175)"/>
<path d="M0 0 C0.99 0 1.98 0 3 0 C3.556875 0.7425 4.11375 1.485 4.6875 2.25 C8.93782413 7.30443951 15.04977829 9.02187588 21.0625 11.4375 C25.96370027 13.44394827 29.90402151 15.64874488 34 19 C34 19.33 34 19.66 34 20 C28.59351603 20.71137947 25.21142273 18.83348345 20.58984375 16.359375 C18.18021392 15.09459192 15.76478558 14.03475157 13.25 13 C6.76589019 10.1359939 2.81119663 6.71563639 0 0 Z " fill="#244968" transform="translate(156,145)"/>
<path d="M0 0 C3.26428409 3.06026634 6.01730444 6.26546117 8.75 9.8125 C12.17882895 14.19486996 15.88946217 17.72392319 20.21484375 21.2109375 C22.15801494 23.1583607 22.62710236 24.31276941 23 27 C14.07816496 23.05065559 7.88041681 14.98734396 2.59375 7.08984375 C2.0678125 6.40019531 1.541875 5.71054688 1 5 C0.34 5 -0.32 5 -1 5 C-0.67 3.35 -0.34 1.7 0 0 Z " fill="#264B6A" transform="translate(100,148)"/>
<path d="M0 0 C7.32732733 0.6006006 7.32732733 0.6006006 10 2.1875 C11.46957066 4.85109682 11.25403102 7.01513547 11 10 C10.67 10.66 10.34 11.32 10 12 C6.83987387 11.66141506 6.04567887 11.05398412 3.9375 8.5625 C3.298125 7.716875 2.65875 6.87125 2 6 C1.01 5.34 0.02 4.68 -1 4 C-0.67 2.68 -0.34 1.36 0 0 Z " fill="#F1F4F6" transform="translate(85,80)"/>
<path d="M0 0 C-0.33 0.99 -0.66 1.98 -1 3 C-6.38027025 4.19088986 -11.45291384 5.2919519 -17 5 C-17.66 3.68 -18.32 2.36 -19 1 C-16.58440932 0.63645961 -14.16805703 0.28389449 -11.75 -0.0625 C-11.06808594 -0.16626953 -10.38617188 -0.27003906 -9.68359375 -0.37695312 C-6.2150075 -0.86524925 -3.33088887 -1.22762141 0 0 Z " fill="#254A69" transform="translate(202,173)"/>
<path d="M0 0 C0.391875 0.556875 0.78375 1.11375 1.1875 1.6875 C3.33892729 4.43242447 5.28465386 6.78983454 8 9 C11.95320924 8.92093582 13.69645615 8.20236257 17 6 C16.64780657 8.60623142 16.23526531 10.60789115 14.875 12.875 C13 14 13 14 9.5625 14 C5.3230379 12.80997555 4.27161503 11.70189116 2 8 C0.57856208 5.01498036 0 3.32269384 0 0 Z " fill="#234968" transform="translate(81,151)"/>
<path d="M0 0 C3.72832729 3.54323302 6.82744164 7.25884628 9.75 11.5 C10.14832031 12.05558594 10.54664062 12.61117187 10.95703125 13.18359375 C13.20222483 16.41819466 14.56009605 19.07019137 15 23 C11.27167271 19.45676698 8.17255836 15.74115372 5.25 11.5 C4.65251953 10.66662109 4.65251953 10.66662109 4.04296875 9.81640625 C1.79777517 6.58180534 0.43990395 3.92980863 0 0 Z " fill="#294E6C" transform="translate(56,70)"/>
<path d="M0 0 C1.75 0.1875 1.75 0.1875 4 1 C4.66 1.845625 5.32 2.69125 6 3.5625 C6.99 4.7690625 6.99 4.7690625 8 6 C9.32 6 10.64 6 12 6 C11.67 7.65 11.34 9.3 11 11 C7.83987387 10.66141506 7.04567887 10.05398412 4.9375 7.5625 C4.298125 6.716875 3.65875 5.87125 3 5 C2.01 4.34 1.02 3.68 0 3 C0 2.01 0 1.02 0 0 Z " fill="#244A69" transform="translate(84,85)"/>
<path d="M0 0 C1.32 0.33 2.64 0.66 4 1 C4.33 2.65 4.66 4.3 5 6 C4.01 5.67 3.02 5.34 2 5 C0.8125 2.4375 0.8125 2.4375 0 0 Z " fill="#294E6D" transform="translate(77,109)"/>
</svg>
