<?xml version="1.0" encoding="UTF-8"?>
<svg version="1.1" xmlns="http://www.w3.org/2000/svg" width="256" height="256">
<path d="M0 0 C84.48 0 168.96 0 256 0 C256 84.48 256 168.96 256 256 C171.52 256 87.04 256 0 256 C0 171.52 0 87.04 0 0 Z " fill="#767AB1" transform="translate(0,0)"/>
<path d="M0 0 C0.82886719 0.03738281 1.65773438 0.07476562 2.51171875 0.11328125 C3.76662109 0.13455078 3.76662109 0.13455078 5.046875 0.15625 C11.20438382 0.30594632 11.20438382 0.30594632 12.38671875 1.48828125 C12.3359375 3.4921875 12.3359375 3.4921875 12.07421875 6.05078125 C11.99558594 6.87707031 11.91695313 7.70335938 11.8359375 8.5546875 C11.26536975 12.28074295 10.34028406 15.84138045 9.38671875 19.48828125 C9.95068359 19.46733398 10.51464844 19.44638672 11.09570312 19.42480469 C13.69252124 19.34079624 16.28905237 19.28935896 18.88671875 19.23828125 C19.77359375 19.20476562 20.66046875 19.17125 21.57421875 19.13671875 C27.68734747 19.0468198 32.32914405 19.91197989 37.38671875 23.48828125 C39.29773129 25.39227661 40.79178392 27.29524586 42.38671875 29.48828125 C42.66386719 28.77800781 42.94101563 28.06773438 43.2265625 27.3359375 C43.58878906 26.41683594 43.95101562 25.49773437 44.32421875 24.55078125 C44.68386719 23.63425781 45.04351562 22.71773437 45.4140625 21.7734375 C46.38671875 19.48828125 46.38671875 19.48828125 47.38671875 18.48828125 C49.82848053 18.3497619 52.23978428 18.27508514 54.68359375 18.25 C55.42820862 18.24192825 56.17282349 18.23385651 56.94000244 18.22554016 C58.52719786 18.21166839 60.11442351 18.20096016 61.70166016 18.19311523 C64.08557971 18.17614528 66.46802125 18.13232448 68.8515625 18.08789062 C79.25465437 17.98195199 90.32517438 18.29640107 99.01171875 24.86328125 C104.65874129 31.10472721 104.85090493 36.66578556 104.67578125 44.78515625 C104.09901941 52.17394303 101.8367316 57.55493078 97.38671875 63.48828125 C96.80921875 64.33390625 96.23171875 65.17953125 95.63671875 66.05078125 C89.75077333 72.42722213 81.64791953 76.1750939 72.98535156 76.60839844 C67.11688313 76.73861909 61.25363364 76.6548094 55.38671875 76.48828125 C55.4021875 78.14537109 55.4021875 78.14537109 55.41796875 79.8359375 C55.39341591 82.705551 55.24708406 84.79963965 54.38671875 87.48828125 C53.39671875 87.48828125 52.40671875 87.48828125 51.38671875 87.48828125 C51.05671875 88.80828125 50.72671875 90.12828125 50.38671875 91.48828125 C51.04671875 91.48828125 51.70671875 91.48828125 52.38671875 91.48828125 C52.38671875 92.47828125 52.38671875 93.46828125 52.38671875 94.48828125 C45.78671875 94.48828125 39.18671875 94.48828125 32.38671875 94.48828125 C32.38671875 85.48828125 32.38671875 85.48828125 33.88671875 80.98828125 C34.16515625 80.13234375 34.44359375 79.27640625 34.73046875 78.39453125 C34.94703125 77.76546875 35.16359375 77.13640625 35.38671875 76.48828125 C34.53122437 76.49613647 34.53122437 76.49613647 33.65844727 76.50415039 C31.08871552 76.52486346 28.51900128 76.53792315 25.94921875 76.55078125 C25.05138672 76.55916016 24.15355469 76.56753906 23.22851562 76.57617188 C21.94750977 76.58100586 21.94750977 76.58100586 20.640625 76.5859375 C19.84986572 76.59117432 19.05910645 76.59641113 18.24438477 76.60180664 C16.38671875 76.48828125 16.38671875 76.48828125 15.38671875 75.48828125 C14.7905198 67.9761745 16.15915866 61.44707954 17.88452148 54.19604492 C19.27304149 48.28441945 20.03963775 42.56219867 20.38671875 36.48828125 C15.43671875 36.48828125 10.48671875 36.48828125 5.38671875 36.48828125 C5.27199219 37.87402344 5.15726562 39.25976562 5.0390625 40.6875 C4.40854593 46.97604399 3.20895997 53.11225658 1.94921875 59.30078125 C1.73201172 60.40615234 1.51480469 61.51152344 1.29101562 62.65039062 C1.07638672 63.71708984 0.86175781 64.78378906 0.640625 65.8828125 C0.44799072 66.84034424 0.25535645 67.79787598 0.05688477 68.78442383 C-1.60187669 75.47687669 -1.60187669 75.47687669 -3.61328125 77.48828125 C-6.43744507 77.61491216 -9.22622918 77.67348673 -12.05078125 77.67578125 C-12.84033203 77.68802734 -13.62988281 77.70027344 -14.44335938 77.71289062 C-16.5013556 77.71815404 -18.55890134 77.6103441 -20.61328125 77.48828125 C-21.27328125 76.82828125 -21.93328125 76.16828125 -22.61328125 75.48828125 C-22.58984375 72.66796875 -22.58984375 72.66796875 -22.23828125 69.36328125 C-22.12742187 68.26757812 -22.0165625 67.171875 -21.90234375 66.04296875 C-21.80695313 65.19992188 -21.7115625 64.356875 -21.61328125 63.48828125 C-22.17015625 64.019375 -22.72703125 64.55046875 -23.30078125 65.09765625 C-30.61900482 71.8719578 -37.37654623 76.64826134 -47.59765625 76.5859375 C-48.53222656 76.58271484 -49.46679688 76.57949219 -50.4296875 76.57617188 C-51.39777344 76.56779297 -52.36585937 76.55941406 -53.36328125 76.55078125 C-54.34683594 76.54626953 -55.33039063 76.54175781 -56.34375 76.53710938 C-58.76698916 76.52534608 -61.19010398 76.50890809 -63.61328125 76.48828125 C-63.65928467 77.26115479 -63.70528809 78.03402832 -63.75268555 78.83032227 C-64.55432735 91.42932735 -64.55432735 91.42932735 -68.61328125 95.48828125 C-71.43744507 95.61491216 -74.22622918 95.67348673 -77.05078125 95.67578125 C-77.84033203 95.68802734 -78.62988281 95.70027344 -79.44335938 95.71289062 C-81.5013556 95.71815404 -83.55890134 95.6103441 -85.61328125 95.48828125 C-87.61328125 93.48828125 -87.61328125 93.48828125 -87.69091797 91.38110352 C-86.88660104 83.60484079 -85.40212387 76.06000126 -83.73828125 68.42578125 C-81.98272316 60.17627169 -80.25154688 51.94386624 -78.92578125 43.61328125 C-78.03696133 38.05703046 -77.11053004 32.51492102 -76.05078125 26.98828125 C-75.82261719 25.78171875 -75.59445313 24.57515625 -75.359375 23.33203125 C-74.61328125 20.48828125 -74.61328125 20.48828125 -72.61328125 18.48828125 C-70.03941661 18.26341531 -67.57660116 18.16013161 -65 18.15234375 C-64.23460403 18.14568695 -63.46920807 18.13903015 -62.68061829 18.13217163 C-61.05232138 18.12202764 -59.42398276 18.11735515 -57.7956543 18.11767578 C-55.34805414 18.11336452 -52.9023513 18.07724304 -50.45507812 18.0390625 C-28.89628379 17.87997019 -28.89628379 17.87997019 -21.23706055 24.56103516 C-18.96785657 27.04636787 -17.11847428 29.47789519 -15.61328125 32.48828125 C-13.2519516 26.20189698 -12.30865163 19.69435508 -11.20117188 13.09960938 C-8.83464059 -0.12845196 -8.83464059 -0.12845196 0 0 Z " fill="#EEEEEF" transform="translate(119.61328125,80.51171875)"/>
<path d="M0 0 C5.51342732 -0.12452146 11.02601847 -0.21476997 16.54052734 -0.2746582 C18.41241737 -0.29964898 20.28421135 -0.33365373 22.15576172 -0.37719727 C43.02999314 -0.85034651 43.02999314 -0.85034651 50 5 C54.47958934 10.40416322 54.409279 15.61018777 54.33984375 22.4765625 C53.53766641 30.79338959 50.07565135 38.04920582 43.81640625 43.60546875 C35.14170935 50.26539734 26.6195264 51.31541909 16 51.125 C15.03449219 51.11597656 14.06898438 51.10695312 13.07421875 51.09765625 C10.71587901 51.07430635 8.35807714 51.04156047 6 51 C5.94013916 51.59095459 5.88027832 52.18190918 5.81860352 52.79077148 C5.23506386 58.32733702 4.289902 63.58241159 3 69 C-1.95 69 -6.9 69 -12 69 C-11.42979624 60.33290291 -9.92830824 52.00372112 -8.16043091 43.52090454 C-7.35661938 39.66118798 -6.57250708 35.79748801 -5.7890625 31.93359375 C-5.63403763 31.17028244 -5.47901276 30.40697113 -5.31929016 29.62052917 C-3.3334568 19.78366528 -1.65454417 9.8969148 0 0 Z " fill="#080808" transform="translate(167,103)"/>
<path d="M0 0 C5.55007795 -0.09938156 11.09963018 -0.1717096 16.65039062 -0.21972656 C18.53589916 -0.23975767 20.42134623 -0.26699073 22.30664062 -0.30175781 C25.02749862 -0.35065272 27.74753056 -0.37305382 30.46875 -0.390625 C31.30241089 -0.41127014 32.13607178 -0.43191528 32.99499512 -0.45318604 C39.39843126 -0.45560364 44.81488728 0.97982307 49.56408691 5.48309326 C53.89773092 10.46672609 54.35296123 14.59676098 54.27734375 20.95703125 C53.52415965 29.2208399 49.9479702 37.17939533 44 43 C34.78941924 50.04523128 25.76303003 51.34104093 14.4375 51.125 C13.52419922 51.11597656 12.61089844 51.10695312 11.66992188 51.09765625 C9.44632681 51.07437253 7.22331323 51.0416771 5 51 C4.95101562 51.71285156 4.90203125 52.42570312 4.8515625 53.16015625 C4.77679688 54.11792969 4.70203125 55.07570312 4.625 56.0625 C4.55539063 57.00222656 4.48578125 57.94195312 4.4140625 58.91015625 C4 62 4 62 2 69 C-2.95 69 -7.9 69 -13 69 C-11.79364861 62.38746442 -10.58503762 55.77534686 -9.37451172 49.16357422 C-8.96474126 46.92377337 -8.55554229 44.68386787 -8.14697266 42.44384766 C-5.56094724 28.26836188 -2.88095327 14.11865791 0 0 Z " fill="#060606" transform="translate(48,103)"/>
<path d="M0 0 C4.95 0 9.9 0 15 0 C13.68 5.94 12.36 11.88 11 18 C13.11728516 17.94779297 13.11728516 17.94779297 15.27734375 17.89453125 C17.1640505 17.86637145 19.05077025 17.83907366 20.9375 17.8125 C21.86369141 17.78736328 22.78988281 17.76222656 23.74414062 17.73632812 C30.96698639 17.66029817 37.70728133 18.36582506 43.5 23 C46.50780892 27.01041189 46.28548531 31.1990977 46 36 C45.55787037 38.70921984 45.06961606 41.3293788 44.46875 44 C44.31337769 44.7211499 44.15800537 45.4422998 43.9979248 46.18530273 C43.50630616 48.45862239 43.00337594 50.72925812 42.5 53 C42.16200506 54.55322124 41.82475856 56.10660554 41.48828125 57.66015625 C40.66885795 61.44242046 39.83413993 65.22083543 39 69 C34.05 69 29.1 69 24 69 C24.41752484 60.85826554 25.67078711 53.29641541 27.62792969 45.40869141 C28.72415424 40.85785094 29.37692616 36.72055137 29 32 C26.6031335 29.6031335 25.92971686 29.71718867 22.6484375 29.5859375 C21.79765625 29.54726562 20.946875 29.50859375 20.0703125 29.46875 C19.18085938 29.4378125 18.29140625 29.406875 17.375 29.375 C16.4778125 29.33632812 15.580625 29.29765625 14.65625 29.2578125 C12.4377073 29.16340643 10.21917597 29.07783252 8 29 C7.95681641 29.5667041 7.91363281 30.1334082 7.86914062 30.71728516 C7.23184736 38.04177268 5.9283394 45.16800748 4.5 52.375 C4.27441406 53.53644531 4.04882812 54.69789063 3.81640625 55.89453125 C2.95735106 60.29147052 2.08680529 64.65277885 1 69 C-3.62 69 -8.24 69 -13 69 C-13 64.03234425 -12.86178686 60.43736459 -11.91430664 55.72924805 C-11.67728531 54.53498703 -11.44026398 53.34072601 -11.19606018 52.11027527 C-10.93671188 50.84025162 -10.67736359 49.57022797 -10.41015625 48.26171875 C-10.14300289 46.93140136 -9.87636385 45.6009806 -9.61021423 44.27046204 C-9.05360799 41.49512805 -8.49256592 38.72074266 -7.92797852 35.94702148 C-7.2039772 32.38955392 -6.48849247 28.83044142 -5.77594852 25.27066326 C-5.22674112 22.52932044 -4.6744451 19.78860778 -4.12106133 17.04810524 C-3.72730976 15.09727444 -3.33508886 13.14613489 -2.94288635 11.19499207 C-2.58262611 9.42724174 -2.58262611 9.42724174 -2.21508789 7.6237793 C-2.00412979 6.5834404 -1.79317169 5.5431015 -1.57582092 4.47123718 C-1 2 -1 2 0 0 Z " fill="#060606" transform="translate(114,85)"/>
<path d="M0 0 C7.26 0 14.52 0 22 0 C22 0.66 22 1.32 22 2 C20.52285534 3.22024994 19.04148239 4.43753734 17.5078125 5.5859375 C14.08359364 8.79725156 13.44502299 12.98711265 12.52734375 17.4453125 C12.26759766 18.68667969 12.00785156 19.92804688 11.74023438 21.20703125 C11.47533203 22.49996094 11.21042969 23.79289062 10.9375 25.125 C10.40845375 27.69085852 9.87491745 30.25569493 9.33984375 32.8203125 C9.10644287 33.95742676 8.87304199 35.09454102 8.63256836 36.26611328 C8 39 8 39 7 41 C7.73605469 40.91878906 8.47210938 40.83757812 9.23046875 40.75390625 C12.85859445 41.0762926 13.86086822 42.31042188 16.3125 44.9375 C17.00988281 45.66839844 17.70726563 46.39929688 18.42578125 47.15234375 C20 49 20 49 20 50 C15.38 50.33 10.76 50.66 6 51 C4.68 56.94 3.36 62.88 2 69 C-2.95 69 -7.9 69 -13 69 C-11.79364861 62.38746442 -10.58503762 55.77534686 -9.37451172 49.16357422 C-8.96474126 46.92377337 -8.55554229 44.68386787 -8.14697266 42.44384766 C-5.56079294 28.2675161 -2.86657554 14.12248681 0 0 Z " fill="#040404" transform="translate(48,103)"/>
<path d="M0 0 C0.66 0.33 1.32 0.66 2 1 C4.55106029 1.15644172 7.07918663 1.25821389 9.6328125 1.31640625 C10.38464813 1.33718735 11.13648376 1.35796844 11.91110229 1.37937927 C14.31564085 1.44482705 16.72028967 1.50373738 19.125 1.5625 C20.75391771 1.60568977 22.38282422 1.64930421 24.01171875 1.69335938 C28.00769915 1.80050351 32.00379059 1.90178433 36 2 C36 2.33 36 2.66 36 3 C24.78 3 13.56 3 2 3 C1.67 6.3 1.34 9.6 1 13 C0.65895498 15.15869725 0.28802666 17.31305627 -0.12329102 19.45947266 C-0.34344376 20.61992096 -0.5635965 21.78036926 -0.79042053 22.97598267 C-1.14359596 24.80158218 -1.14359596 24.80158218 -1.50390625 26.6640625 C-1.7466478 27.93728363 -1.98938934 29.21050476 -2.23948669 30.52230835 C-2.87842147 33.87336625 -3.52255152 37.2234041 -4.16784668 40.57324219 C-4.82798908 44.00524758 -5.48310549 47.43821189 -6.13867188 50.87109375 C-7.42092222 57.58166623 -8.70913982 64.29107845 -10 71 C-3.07 71.495 -3.07 71.495 4 72 C4.309375 69.958125 4.61875 67.91625 4.9375 65.8125 C5.53753765 61.85225152 6.18035868 57.92098688 7 54 C7.83809204 53.970271 7.83809204 53.970271 8.69311523 53.93994141 C11.27497418 53.8434781 13.85615392 53.73430188 16.4375 53.625 C17.31599609 53.5940625 18.19449219 53.563125 19.09960938 53.53125 C29.27624587 53.08062403 37.84611249 51.4731032 46 45 C50.67872236 39.8503998 52.97228099 33.97837496 54.9453125 27.3828125 C56.17971267 24.59398248 57.54071632 23.71795959 60 22 C59.39969169 29.30191376 58.29701918 36.42867584 56.9375 43.625 C56.75123047 44.62917969 56.56496094 45.63335937 56.37304688 46.66796875 C55.9190322 49.11266314 55.46004117 51.5564325 55 54 C59.62 54 64.24 54 69 54 C69.10183594 52.84628906 69.20367187 51.69257813 69.30859375 50.50390625 C70.11539467 43.24269794 71.64437446 36.09842096 73.0625 28.9375 C73.34733999 27.48509166 73.63184788 26.03261814 73.91601562 24.58007812 C74.60685021 21.05262589 75.3021738 17.52607661 76 14 C76.33 14 76.66 14 77 14 C77.2165625 15.175625 77.2165625 15.175625 77.4375 16.375 C77.87798925 18.96421018 77.87798925 18.96421018 79 21 C78.48959841 25.5760431 77.57385572 30.09606938 76.75 34.625 C76.42322266 36.51412109 76.42322266 36.51412109 76.08984375 38.44140625 C73.14463115 54.85536885 73.14463115 54.85536885 70 58 C67.17583618 58.12663091 64.38705207 58.18520548 61.5625 58.1875 C60.77294922 58.19974609 59.98339844 58.21199219 59.16992188 58.22460938 C57.11192565 58.22987279 55.05437991 58.12206285 53 58 C52.34 57.34 51.68 56.68 51 56 C51.0234375 53.1796875 51.0234375 53.1796875 51.375 49.875 C51.48585938 48.77929688 51.59671875 47.68359375 51.7109375 46.5546875 C51.80632812 45.71164063 51.90171875 44.86859375 52 44 C51.443125 44.53109375 50.88625 45.0621875 50.3125 45.609375 C42.99427643 52.38367655 36.23673502 57.15998009 26.015625 57.09765625 C25.08105469 57.09443359 24.14648438 57.09121094 23.18359375 57.08789062 C22.21550781 57.07951172 21.24742188 57.07113281 20.25 57.0625 C18.77466797 57.05573242 18.77466797 57.05573242 17.26953125 57.04882812 C14.84629209 57.03706483 12.42317727 57.02062684 10 57 C9.95399658 57.77287354 9.90799316 58.54574707 9.8605957 59.34204102 C9.0589539 71.9410461 9.0589539 71.9410461 5 76 C2.17583618 76.12663091 -0.61294793 76.18520548 -3.4375 76.1875 C-4.22705078 76.19974609 -5.01660156 76.21199219 -5.83007812 76.22460938 C-7.88807435 76.22987279 -9.94562009 76.12206285 -12 76 C-14 74 -14 74 -14.07763672 71.89282227 C-13.27331979 64.11655954 -11.78884262 56.57172001 -10.125 48.9375 C-8.36945344 40.68804462 -6.63749578 32.45567772 -5.3125 24.125 C-4.42434224 18.5422941 -3.46856074 12.98412488 -2.375 7.4375 C-2.13523437 6.21933594 -1.89546875 5.00117187 -1.6484375 3.74609375 C-1 1 -1 1 0 0 Z " fill="#EAEBED" transform="translate(46,100)"/>
<path d="M0 0 C5.07505276 0.07583761 8.52048636 0.56355394 12.80395508 3.25317383 C15.66045179 7.53791889 15.40740807 11.2243989 14.80395508 16.25317383 C13.13456527 21.55010256 10.58403238 25.29407836 5.80395508 28.25317383 C1.12242367 30.16959019 -3.07582507 30.50402239 -8.07104492 30.37817383 C-8.7594043 30.36915039 -9.44776367 30.36012695 -10.15698242 30.35083008 C-11.83682331 30.32749895 -13.51648239 30.29163709 -15.19604492 30.25317383 C-14.74844264 23.42723897 -13.59764759 16.87451969 -12.19604492 10.19067383 C-12.01783203 9.33304443 -11.83961914 8.47541504 -11.65600586 7.59179688 C-9.91285783 -0.53664899 -8.50111098 0.01302775 0 0 Z " fill="#767AB0" transform="translate(71.196044921875,112.746826171875)"/>
<path d="M0 0 C2.89640118 -0.08120751 5.79050912 -0.14059421 8.6875 -0.1875 C9.50412109 -0.21263672 10.32074219 -0.23777344 11.16210938 -0.26367188 C15.97545043 -0.32213351 19.05803722 -0.08670459 23 3 C24.83758209 4.83758209 24.30114371 7.58831431 24.375 10.0625 C24.31098877 15.36961284 23.91047072 19.14788632 20.6484375 23.41015625 C15.01870507 28.83977971 8.92015858 29.29612316 1.4375 29.25 C-1.04487966 29.19941213 -3.51918585 29.10958197 -6 29 C-5.3394853 25.33220072 -4.67026617 21.66602901 -4 18 C-3.87689453 17.32050293 -3.75378906 16.64100586 -3.62695312 15.94091797 C-3.2335044 13.77254571 -2.8358331 11.60497978 -2.4375 9.4375 C-2.31076904 8.73496094 -2.18403809 8.03242187 -2.0534668 7.30859375 C-1.11380869 2.22761738 -1.11380869 2.22761738 0 0 Z " fill="#777BB1" transform="translate(181,114)"/>
<path d="M0 0 C4.74644069 -0.10020906 9.49224203 -0.17208723 14.23950195 -0.21972656 C15.84833526 -0.23962238 17.45709842 -0.26674929 19.06567383 -0.30175781 C30.22828345 -0.538298 42.2439483 -0.71442117 51.625 6.375 C57.27202254 12.61644596 57.46418618 18.17750431 57.2890625 26.296875 C56.71230066 33.68566178 54.45001285 39.06664953 50 45 C49.13375 46.2684375 49.13375 46.2684375 48.25 47.5625 C42.36405458 53.93894088 34.26120078 57.68681265 25.59863281 58.12011719 C19.73016438 58.25033784 13.86691489 58.16652815 8 58 C8.0103125 59.10472656 8.020625 60.20945313 8.03125 61.34765625 C8.00669716 64.21726975 7.86036531 66.3113584 7 69 C6.01 69 5.02 69 4 69 C4.14204741 67.41632253 4.28880153 65.83306682 4.4375 64.25 C4.55931641 62.92742187 4.55931641 62.92742187 4.68359375 61.578125 C4.96290685 59.30224048 5.42206661 57.21301184 6 55 C6.58378418 54.98541748 7.16756836 54.97083496 7.76904297 54.95581055 C10.47161959 54.88030915 13.17309464 54.78399662 15.875 54.6875 C17.25171875 54.65366211 17.25171875 54.65366211 18.65625 54.61914062 C30.44415859 54.1625667 38.8909256 51.1090744 47.25 42.75 C52.95120904 33.79095722 54.24689714 25.28819865 52.66796875 14.79296875 C51.54552821 11.08649244 49.32445214 9.23331817 46.125 7.36328125 C37.9517046 3.43638901 28.74364993 4.21388527 19.875 4.1875 C18.04163734 4.16432365 16.20830105 4.13895187 14.375 4.11132812 C9.91656813 4.04888157 5.45882986 4.01622665 1 4 C1 3.67 1 3.34 1 3 C5.62 2.67 10.24 2.34 15 2 C10.05 1.67 5.1 1.34 0 1 C0 0.67 0 0.34 0 0 Z " fill="#E7E7E9" transform="translate(167,99)"/>
<path d="M0 0 C0.66 0.33 1.32 0.66 2 1 C4.55106029 1.15644172 7.07918663 1.25821389 9.6328125 1.31640625 C10.38464813 1.33718735 11.13648376 1.35796844 11.91110229 1.37937927 C14.31564085 1.44482705 16.72028967 1.50373738 19.125 1.5625 C20.75391771 1.60568977 22.38282422 1.64930421 24.01171875 1.69335938 C28.00769915 1.80050351 32.00379059 1.90178433 36 2 C36 2.33 36 2.66 36 3 C24.78 3 13.56 3 2 3 C1.67 6.3 1.34 9.6 1 13 C0.65895498 15.15869725 0.28802666 17.31305627 -0.12329102 19.45947266 C-0.34344376 20.61992096 -0.5635965 21.78036926 -0.79042053 22.97598267 C-1.14359596 24.80158218 -1.14359596 24.80158218 -1.50390625 26.6640625 C-1.7466478 27.93728363 -1.98938934 29.21050476 -2.23948669 30.52230835 C-2.87842147 33.87336625 -3.52255152 37.2234041 -4.16784668 40.57324219 C-4.82798908 44.00524758 -5.48310549 47.43821189 -6.13867188 50.87109375 C-7.42092222 57.58166623 -8.70913982 64.29107845 -10 71 C-3.07 71.495 -3.07 71.495 4 72 C4.495 70.515 4.495 70.515 5 69 C5 70.32 5 71.64 5 73 C0.38 73.33 -4.24 73.66 -9 74 C-2.07 74.495 -2.07 74.495 5 75 C5 75.33 5 75.66 5 76 C2.20807795 76.05380578 -0.5828141 76.09357669 -3.375 76.125 C-4.56609375 76.15013672 -4.56609375 76.15013672 -5.78125 76.17578125 C-7.85492015 76.19335473 -9.92883241 76.10335168 -12 76 C-14 74 -14 74 -14.07763672 71.89282227 C-13.27331979 64.11655954 -11.78884262 56.57172001 -10.125 48.9375 C-8.36945344 40.68804462 -6.63749578 32.45567772 -5.3125 24.125 C-4.42434224 18.5422941 -3.46856074 12.98412488 -2.375 7.4375 C-2.13523437 6.21933594 -1.89546875 5.00117187 -1.6484375 3.74609375 C-1 1 -1 1 0 0 Z " fill="#EDEEF0" transform="translate(46,100)"/>
<path d="M0 0 C5.07505276 0.07583761 8.52048636 0.56355394 12.80395508 3.25317383 C15.66045179 7.53791889 15.40740807 11.2243989 14.80395508 16.25317383 C13.13456527 21.55010256 10.58403238 25.29407836 5.80395508 28.25317383 C1.12242367 30.16959019 -3.07582507 30.50402239 -8.07104492 30.37817383 C-8.7594043 30.36915039 -9.44776367 30.36012695 -10.15698242 30.35083008 C-11.83682331 30.32749895 -13.51648239 30.29163709 -15.19604492 30.25317383 C-14.74844264 23.42723897 -13.59764759 16.87451969 -12.19604492 10.19067383 C-12.01783203 9.33304443 -11.83961914 8.47541504 -11.65600586 7.59179688 C-9.91285783 -0.53664899 -8.50111098 0.01302775 0 0 Z M-7.19604492 4.25317383 C-7.86743114 7.52305682 -8.53233755 10.79422432 -9.19604492 14.06567383 C-9.4822168 15.45882812 -9.4822168 15.45882812 -9.77416992 16.88012695 C-9.95463867 17.77280273 -10.13510742 18.66547852 -10.32104492 19.58520508 C-10.48862305 20.40738525 -10.65620117 21.22956543 -10.82885742 22.07666016 C-11.27922179 24.37832866 -11.27922179 24.37832866 -11.19604492 27.25317383 C-4.06779881 27.78779229 1.26286341 27.85088206 7.28051758 23.73754883 C9.95609254 21.13057835 10.72548372 19.02158171 11.10473633 15.30786133 C11.10860352 14.25856445 11.1124707 13.20926758 11.11645508 12.12817383 C11.13321289 11.0737207 11.1499707 10.01926758 11.16723633 8.93286133 C11.04735352 8.04856445 10.9274707 7.16426758 10.80395508 6.25317383 C7.12308155 3.79925814 4.36039919 4.02514624 0.11645508 4.12817383 C-0.58543945 4.13719727 -1.28733398 4.1462207 -2.01049805 4.15551758 C-3.73916017 4.17903679 -5.46764638 4.2149067 -7.19604492 4.25317383 Z " fill="#EFEFF1" transform="translate(71.196044921875,112.746826171875)"/>
<path d="M0 0 C2.89640118 -0.08120751 5.79050912 -0.14059421 8.6875 -0.1875 C9.50412109 -0.21263672 10.32074219 -0.23777344 11.16210938 -0.26367188 C15.97545043 -0.32213351 19.05803722 -0.08670459 23 3 C24.83758209 4.83758209 24.30114371 7.58831431 24.375 10.0625 C24.31098877 15.36961284 23.91047072 19.14788632 20.6484375 23.41015625 C15.01870507 28.83977971 8.92015858 29.29612316 1.4375 29.25 C-1.04487966 29.19941213 -3.51918585 29.10958197 -6 29 C-5.3394853 25.33220072 -4.67026617 21.66602901 -4 18 C-3.87689453 17.32050293 -3.75378906 16.64100586 -3.62695312 15.94091797 C-3.2335044 13.77254571 -2.8358331 11.60497978 -2.4375 9.4375 C-2.31076904 8.73496094 -2.18403809 8.03242187 -2.0534668 7.30859375 C-1.11380869 2.22761738 -1.11380869 2.22761738 0 0 Z M2 3 C1.32861379 6.26988299 0.66370737 9.54105049 0 12.8125 C-0.28617188 14.2056543 -0.28617188 14.2056543 -0.578125 15.62695312 C-0.75859375 16.51962891 -0.9390625 17.41230469 -1.125 18.33203125 C-1.29257813 19.15421143 -1.46015625 19.9763916 -1.6328125 20.82348633 C-2.08317686 23.12515483 -2.08317686 23.12515483 -2 26 C6.6492432 26.84275181 6.6492432 26.84275181 14.625 24.25 C18.37416757 20.69815704 20.7553525 17.90283672 21.203125 12.58984375 C21.21859375 11.71457031 21.2340625 10.83929688 21.25 9.9375 C21.27578125 9.05964844 21.3015625 8.18179688 21.328125 7.27734375 C21.21984375 6.52582031 21.1115625 5.77429688 21 5 C17.20836973 2.47224649 14.19125969 2.77556965 9.8125 2.875 C8.68811523 2.88853516 8.68811523 2.88853516 7.54101562 2.90234375 C5.69387346 2.92587422 3.84689588 2.96174439 2 3 Z " fill="#E5E5E9" transform="translate(181,114)"/>
<path d="M0 0 C9.57 0 19.14 0 29 0 C25.55549263 2.29633824 23.06187717 2.54016485 19 3 C19 3.66 19 4.32 19 5 C15.88229079 6.84753138 13.61884589 7.54282688 10 7 C7.6875 5 7.6875 5 6 3 C5.67 3.33 5.34 3.66 5 4 C7.475 7.465 7.475 7.465 10 11 C9.51789062 11.79664063 9.03578125 12.59328125 8.5390625 13.4140625 C7.90742187 14.47367188 7.27578125 15.53328125 6.625 16.625 C5.99851562 17.66914063 5.37203125 18.71328125 4.7265625 19.7890625 C3.09548847 22.82241736 1.97923167 25.70622076 1 29 C0.67 29 0.34 29 0 29 C0 19.43 0 9.86 0 0 Z " fill="#0C0D12" transform="translate(0,0)"/>
<path d="M0 0 C2.1519437 3.22791555 2.20086443 4.28400809 2 8 C2.66 8 3.32 8 4 8 C5.5078125 10.1875 5.5078125 10.1875 7.125 13 C7.66382813 13.928125 8.20265625 14.85625 8.7578125 15.8125 C9.16773438 16.534375 9.57765625 17.25625 10 18 C9.57847656 18.48210937 9.15695312 18.96421875 8.72265625 19.4609375 C7.90087891 20.40839844 7.90087891 20.40839844 7.0625 21.375 C6.51722656 22.00148437 5.97195312 22.62796875 5.41015625 23.2734375 C3.93041376 24.95632334 3.93041376 24.95632334 3 27 C3.54269531 26.566875 4.08539063 26.13375 4.64453125 25.6875 C5.35996094 25.130625 6.07539062 24.57375 6.8125 24 C7.52019531 23.443125 8.22789063 22.88625 8.95703125 22.3125 C11 21 11 21 14 21 C15.67083819 22.32810215 17.33729713 23.66172696 19 25 C21.06874034 25.6425235 21.06874034 25.6425235 23 26 C23.99 26.66 24.98 27.32 26 28 C22.94080612 29.01973129 20.87581975 29.11533602 17.67578125 29.09765625 C16.74934814 29.09515869 15.82291504 29.09266113 14.8684082 29.09008789 C13.6949585 29.08098389 12.52150879 29.07187988 11.3125 29.0625 C7.579375 29.041875 3.84625 29.02125 0 29 C0 19.43 0 9.86 0 0 Z " fill="#090A0F" transform="translate(0,227)"/>
<path d="M0 0 C0.33 0 0.66 0 1 0 C1.144375 0.78375 1.28875 1.5675 1.4375 2.375 C1.87798925 4.96421018 1.87798925 4.96421018 3 7 C2.48959841 11.5760431 1.57385572 16.09606938 0.75 20.625 C0.53214844 21.88441406 0.31429687 23.14382812 0.08984375 24.44140625 C-2.85536885 40.85536885 -2.85536885 40.85536885 -6 44 C-8.82416382 44.12663091 -11.61294793 44.18520548 -14.4375 44.1875 C-15.22705078 44.19974609 -16.01660156 44.21199219 -16.83007812 44.22460938 C-18.88807435 44.22987279 -20.94562009 44.12206285 -23 44 C-23.66 43.34 -24.32 42.68 -25 42 C-24.625 38.875 -24.625 38.875 -24 36 C-23.01 36 -22.02 36 -21 36 C-21 37.32 -21 38.64 -21 40 C-16.38 40 -11.76 40 -7 40 C-6.89816406 38.84628906 -6.79632813 37.69257813 -6.69140625 36.50390625 C-5.88460533 29.24269794 -4.35562554 22.09842096 -2.9375 14.9375 C-2.65266001 13.48509166 -2.36815212 12.03261814 -2.08398438 10.58007812 C-1.39314979 7.05262589 -0.6978262 3.52607661 0 0 Z " fill="#E9EAEC" transform="translate(122,114)"/>
<path d="M0 0 C0.33 0 0.66 0 1 0 C1 8.91 1 17.82 1 27 C-6.59 27 -14.18 27 -22 27 C-22 26.01 -22 25.02 -22 24 C-21.01 23.67 -20.02 23.34 -19 23 C-18.67 22.67 -18.34 22.34 -18 22 C-17.01 21.71125 -16.02 21.4225 -15 21.125 C-14.01 20.75375 -13.02 20.3825 -12 20 C-11.67 19.01 -11.34 18.02 -11 17 C-7.24436571 19.20919664 -3.61223321 21.56384272 0 24 C-0.63228516 23.20335937 -0.63228516 23.20335937 -1.27734375 22.390625 C-2.09912109 21.33101562 -2.09912109 21.33101562 -2.9375 20.25 C-3.48277344 19.55390625 -4.02804688 18.8578125 -4.58984375 18.140625 C-5.97425654 16.03907872 -6.56286987 14.45678201 -7 12 C-6.01 11.34 -5.02 10.68 -4 10 C-2.8499169 8.03327085 -2.8499169 8.03327085 -2 6 C-1.67 5.34 -1.34 4.68 -1 4 C-0.64830932 2.67139075 -0.31229724 1.33841672 0 0 Z " fill="#020207" transform="translate(255,229)"/>
<path d="M0 0 C5.61 0 11.22 0 17 0 C16.67 0.66 16.34 1.32 16 2 C12.83984375 2.4140625 12.83984375 2.4140625 8.9375 2.625 C7.64714844 2.69976562 6.35679687 2.77453125 5.02734375 2.8515625 C4.02832031 2.90054688 3.02929688 2.94953125 2 3 C1.76216797 4.62808594 1.76216797 4.62808594 1.51953125 6.2890625 C1.28487562 7.73454119 1.04914097 9.179845 0.8125 10.625 C0.71130859 11.33785156 0.61011719 12.05070312 0.50585938 12.78515625 C-0.41402833 18.20503517 -2.18598556 21.04241382 -6 25 C-6.95006857 22.1497943 -6.97268258 20.13950133 -6.875 17.0625 C-6.84636106 13.21056192 -7.42181139 11.00788671 -10 8 C-14.76266152 5.1209174 -18.89924086 4.40543414 -24.3125 3.9375 C-26.9057788 3.70550606 -29.42281941 3.40129109 -32 3 C-32.33 2.34 -32.66 1.68 -33 1 C-30.12442297 0.91861574 -27.25117738 0.85932149 -24.375 0.8125 C-23.56675781 0.78736328 -22.75851563 0.76222656 -21.92578125 0.73632812 C-16.07706496 0.66500232 -11.73267206 1.38807391 -7.3203125 5.60546875 C-6.21354167 7.0703125 -5.10677083 8.53515625 -4 10 C-2.68 6.7 -1.36 3.4 0 0 Z " fill="#F0F0F2" transform="translate(166,100)"/>
<path d="M0 0 C3.21043882 1.38188453 5.04936365 2.92421903 7.25 5.625 C7.77078125 6.25664062 8.2915625 6.88828125 8.828125 7.5390625 C9.40820312 8.26222656 9.40820312 8.26222656 10 9 C7.36 9 4.72 9 2 9 C1.93941406 9.68707031 1.87882813 10.37414062 1.81640625 11.08203125 C1.73261719 11.98308594 1.64882812 12.88414062 1.5625 13.8125 C1.48128906 14.70582031 1.40007812 15.59914062 1.31640625 16.51953125 C1 19 1 19 0 22 C-3.21524305 20.59155282 -5.32183868 18.89655214 -7.75 16.375 C-8.36359375 15.74335938 -8.9771875 15.11171875 -9.609375 14.4609375 C-10.06828125 13.97882813 -10.5271875 13.49671875 -11 13 C-9.46356148 9.31930113 -7.21849055 7.01224796 -4.375 4.25 C-3.55773437 3.45078125 -2.74046875 2.6515625 -1.8984375 1.828125 C-0.95871094 0.92320312 -0.95871094 0.92320312 0 0 Z " fill="#020202" transform="translate(171,144)"/>
<path d="M0 0 C7.59 0 15.18 0 23 0 C23.04125 3.75375 23.0825 7.5075 23.125 11.375 C23.14320801 12.55755371 23.16141602 13.74010742 23.18017578 14.95849609 C23.1851709 15.88742676 23.19016602 16.81635742 23.1953125 17.7734375 C23.20578613 18.72653809 23.21625977 19.67963867 23.22705078 20.66162109 C23 23 23 23 21 25 C18.09619238 19.44488978 18.09619238 19.44488978 17.5 16.6875 C17.335 16.130625 17.17 15.57375 17 15 C16.01 14.67 15.02 14.34 14 14 C15.66751148 10.05860922 18.22710649 7.2107188 21 4 C18.37548383 4 17.4644652 4.952248 15.375 6.5 C14.74335938 6.9640625 14.11171875 7.428125 13.4609375 7.90625 C12.97882813 8.2671875 12.49671875 8.628125 12 9 C6 4.5 6 4.5 0 0 Z " fill="#000002" transform="translate(233,0)"/>
<path d="M0 0 C4.9255044 -0.07491408 9.85066732 -0.12895771 14.77661133 -0.16479492 C16.44756864 -0.17975584 18.11848755 -0.20013204 19.78930664 -0.22631836 C40.07192117 -0.53593025 40.07192117 -0.53593025 47 3 C47.495 4.485 47.495 4.485 48 6 C41.41627114 5.07827796 41.41627114 5.07827796 38.25927734 4.48461914 C34.49484994 3.92488967 30.77409119 3.77263899 26.9765625 3.68359375 C25.85729874 3.6524221 25.85729874 3.6524221 24.71542358 3.62062073 C22.35203492 3.5556877 19.98854336 3.49650429 17.625 3.4375 C16.01431265 3.39426116 14.40363537 3.35064523 12.79296875 3.30664062 C8.86208229 3.20006474 4.93109323 3.09864208 1 3 C0.67 2.01 0.34 1.02 0 0 Z " fill="#E6E7EF" transform="translate(47,99)"/>
<path d="M0 0 C5.61 0 11.22 0 17 0 C17.495 1.485 17.495 1.485 18 3 C13.05 3 8.1 3 3 3 C2.896875 4.670625 2.79375 6.34125 2.6875 8.0625 C2.25408631 12.99576754 1.24346955 16.61060306 -1 21 C-5.95 21 -10.9 21 -16 21 C-16.33 20.34 -16.66 19.68 -17 19 C-12.05 19 -7.1 19 -2 19 C-2.04125 17.906875 -2.0825 16.81375 -2.125 15.6875 C-2.14428481 10.31668052 -1.05083997 5.25419983 0 0 Z " fill="#F2F2F3" transform="translate(53,154)"/>
<path d="M0 0 C4.83803846 -0.04975831 9.67592509 -0.08588788 14.51416016 -0.10986328 C16.15709023 -0.11986737 17.80000274 -0.13347494 19.44287109 -0.15087891 C21.81612505 -0.17537515 24.18914185 -0.18653917 26.5625 -0.1953125 C27.28679199 -0.20563507 28.01108398 -0.21595764 28.75732422 -0.22659302 C33.80716915 -0.2276826 38.14010767 0.61760937 43 2 C43 2.66 43 3.32 43 4 C29.14 4 15.28 4 1 4 C1 3.67 1 3.34 1 3 C5.62 2.67 10.24 2.34 15 2 C10.05 1.67 5.1 1.34 0 1 C0 0.67 0 0.34 0 0 Z " fill="#C6C7CF" transform="translate(167,99)"/>
<path d="M0 0 C5.05389916 0.07135201 8.52596556 0.60573166 12.80615234 3.25537109 C13.13615234 3.91537109 13.46615234 4.57537109 13.80615234 5.25537109 C13.14615234 5.25537109 12.48615234 5.25537109 11.80615234 5.25537109 C11.80615234 8.55537109 11.80615234 11.85537109 11.80615234 15.25537109 C11.47615234 15.25537109 11.14615234 15.25537109 10.80615234 15.25537109 C10.75716797 14.61728516 10.70818359 13.97919922 10.65771484 13.32177734 C10.58294922 12.49548828 10.50818359 11.66919922 10.43115234 10.81787109 C10.36154297 9.99416016 10.29193359 9.17044922 10.22021484 8.32177734 C10.08357422 7.63986328 9.94693359 6.95794922 9.80615234 6.25537109 C6.76401967 4.73430476 3.52567663 4.88107772 0.18115234 4.69287109 C-0.52525391 4.6496875 -1.23166016 4.60650391 -1.95947266 4.56201172 C-3.70403302 4.45592359 -5.44891462 4.3551422 -7.19384766 4.25537109 C-7.52384766 5.90537109 -7.85384766 7.55537109 -8.19384766 9.25537109 C-8.85384766 9.25537109 -9.51384766 9.25537109 -10.19384766 9.25537109 C-10.29150391 3.10302734 -10.29150391 3.10302734 -10.19384766 1.25537109 C-7.91746291 -1.02101365 -3.07440482 0.0079817 0 0 Z " fill="#D0D0D8" transform="translate(71.19384765625,112.74462890625)"/>
<path d="M0 0 C0.66 0.33 1.32 0.66 2 1 C4.55106029 1.15644172 7.07918663 1.25821389 9.6328125 1.31640625 C10.38464813 1.33718735 11.13648376 1.35796844 11.91110229 1.37937927 C14.31564085 1.44482705 16.72028967 1.50373738 19.125 1.5625 C20.75391771 1.60568977 22.38282422 1.64930421 24.01171875 1.69335938 C28.00769915 1.80050351 32.00379059 1.90178433 36 2 C36 2.33 36 2.66 36 3 C24.78 3 13.56 3 2 3 C1.67 6.3 1.34 9.6 1 13 C0.53512798 15.22078758 0.02370243 17.43311264 -0.5625 19.625 C-0.83191406 20.64851563 -1.10132813 21.67203125 -1.37890625 22.7265625 C-1.58386719 23.47679688 -1.78882813 24.22703125 -2 25 C-2.66 24.67 -3.32 24.34 -4 24 C-4.33664933 18.50139421 -3.64452488 13.45217266 -2.5625 8.0625 C-2.42803467 7.38759521 -2.29356934 6.71269043 -2.1550293 6.01733398 C-1.13480959 1.13480959 -1.13480959 1.13480959 0 0 Z " fill="#BBBBBE" transform="translate(46,100)"/>
<path d="M0 0 C0.05791844 3.12492251 0.09356746 6.24970766 0.125 9.375 C0.14175781 10.26445312 0.15851563 11.15390625 0.17578125 12.0703125 C0.18222656 12.92109375 0.18867188 13.771875 0.1953125 14.6484375 C0.20578613 15.43395996 0.21625977 16.21948242 0.22705078 17.02880859 C0 19 0 19 -2 21 C-4.90380762 15.44488978 -4.90380762 15.44488978 -5.5 12.6875 C-5.665 12.130625 -5.83 11.57375 -6 11 C-6.99 10.67 -7.98 10.34 -9 10 C-7.85488963 7.02271304 -3.65933899 0 0 0 Z " fill="#0A0A0D" transform="translate(256,4)"/>
<path d="M0 0 C0.33 0 0.66 0 1 0 C1 7.59 1 15.18 1 23 C-5.75 17.375 -5.75 17.375 -7 12 C-6.01 11.34 -5.02 10.68 -4 10 C-2.8499169 8.03327085 -2.8499169 8.03327085 -2 6 C-1.67 5.34 -1.34 4.68 -1 4 C-0.64830932 2.67139075 -0.31229724 1.33841672 0 0 Z " fill="#070A0B" transform="translate(255,229)"/>
<path d="M0 0 C0.33 0.66 0.66 1.32 1 2 C1.66 2 2.32 2 3 2 C2.69112547 4.43800966 2.37805338 6.87535367 2.0625 9.3125 C1.97548828 10.00279297 1.88847656 10.69308594 1.79882812 11.40429688 C1.40789865 14.40142288 0.9584996 17.12450119 0 20 C2.29629994 21.14814997 4.07698086 21.30769809 6.625 21.5625 C7.44226563 21.64628906 8.25953125 21.73007813 9.1015625 21.81640625 C10.04128906 21.90728516 10.04128906 21.90728516 11 22 C11 22.33 11 22.66 11 23 C6.05 23 1.1 23 -4 23 C-3.41078568 15.10452815 -1.91342245 7.67775802 0 0 Z " fill="#DFDFE1" transform="translate(60,120)"/>
<path d="M0 0 C0.33 0 0.66 0 1 0 C1.144375 0.78375 1.28875 1.5675 1.4375 2.375 C1.87798925 4.96421018 1.87798925 4.96421018 3 7 C2.58703524 9.30451663 2.09569431 11.59529813 1.5625 13.875 C0.65525481 17.77249279 0 20.98639973 0 25 C3.63 25.33 7.26 25.66 11 26 C11 26.33 11 26.66 11 27 C5.72 27 0.44 27 -5 27 C-3.37360938 17.99229813 -1.69297953 8.99536455 0 0 Z " fill="#DCDCDD" transform="translate(180,116)"/>
<path d="M0 0 C0.33 0 0.66 0 1 0 C0.85616078 1.52102323 0.70980986 3.04180897 0.5625 4.5625 C0.48128906 5.40941406 0.40007812 6.25632813 0.31640625 7.12890625 C-0.04721423 10.42842538 -0.53055253 13.71386771 -1 17 C7.415 16.505 7.415 16.505 16 16 C16 16.99 16 17.98 16 19 C9.4 19 2.8 19 -4 19 C-4 9.97129187 -4 9.97129187 -2.5625 5.5625 C-2.29566406 4.71816406 -2.02882812 3.87382812 -1.75390625 3.00390625 C-1 1 -1 1 0 0 Z " fill="#FAFAFB" transform="translate(156,156)"/>
<path d="M0 0 C2.87557703 -0.08138426 5.74882262 -0.14067851 8.625 -0.1875 C9.43324219 -0.21263672 10.24148437 -0.23777344 11.07421875 -0.26367188 C16.92473513 -0.33501964 21.1895429 0.43137293 25.6796875 4.53515625 C29 8.77777778 29 8.77777778 29 11 C28.01 11.33 27.02 11.66 26 12 C25.443125 10.8553125 25.443125 10.8553125 24.875 9.6875 C22.33464455 6.04632386 19.41582389 4.48071186 15.02832031 3.60766602 C12.91641466 3.33561805 10.80890486 3.12087895 8.6875 2.9375 C6.0942212 2.70550606 3.57718059 2.40129109 1 2 C0.67 1.34 0.34 0.68 0 0 Z " fill="#F3F3F4" transform="translate(133,101)"/>
<path d="M0 0 C4.90969808 1.71268538 7.83395693 4.60028252 10.5625 8.875 C12.18394703 13.28893915 12.23079822 16.37551763 10.6875 20.8125 C10.3575 21.51375 10.0275 22.215 9.6875 22.9375 C9.3575 22.9375 9.0275 22.9375 8.6875 22.9375 C8.60113281 22.05707031 8.51476562 21.17664063 8.42578125 20.26953125 C7.65134129 13.12024727 7.65134129 13.12024727 4.5 6.8125 C1.29140495 4.67343664 -1.70210143 3.28255045 -5.3125 1.9375 C-2.3125 -0.0625 -2.3125 -0.0625 0 0 Z " fill="#E4E4E7" transform="translate(212.3125,102.0625)"/>
<path d="M0 0 C0.99 0 1.98 0 3 0 C4 2 4 2 3 8 C9.93 8.495 9.93 8.495 17 9 C17.33 8.01 17.66 7.02 18 6 C18 7.32 18 8.64 18 10 C13.38 10.33 8.76 10.66 4 11 C10.93 11.495 10.93 11.495 18 12 C18 12.33 18 12.66 18 13 C15.20807795 13.05380578 12.4171859 13.09357669 9.625 13.125 C8.8309375 13.14175781 8.036875 13.15851563 7.21875 13.17578125 C5.14507985 13.19335473 3.07116759 13.10335168 1 13 C0.34 12.34 -0.32 11.68 -1 11 C-0.9765625 8.3984375 -0.9765625 8.3984375 -0.625 5.375 C-0.51414063 4.37210938 -0.40328125 3.36921875 -0.2890625 2.3359375 C-0.19367187 1.56507813 -0.09828125 0.79421875 0 0 Z " fill="#BDBEC7" transform="translate(33,163)"/>
<path d="M0 0 C0.33 1.32 0.66 2.64 1 4 C1.66 4 2.32 4 3 4 C2.67 5.98 2.34 7.96 2 10 C8.6 10 15.2 10 22 10 C22 10.33 22 10.66 22 11 C17.05 11.33 12.1 11.66 7 12 C7 12.33 7 12.66 7 13 C4.03 13 1.06 13 -2 13 C-1.34 8.71 -0.68 4.42 0 0 Z " fill="#E7E7ED" transform="translate(127,90)"/>
<path d="M0 0 C3.3 0 6.6 0 10 0 C10 0.99 10 1.98 10 3 C7.36 3 4.72 3 2 3 C2.020625 4.0725 2.04125 5.145 2.0625 6.25 C2.0142016 9.14790424 1.86844115 11.28612141 1 14 C0.01 14 -0.98 14 -2 14 C-1.85795259 12.41632253 -1.71119847 10.83306682 -1.5625 9.25 C-1.48128906 8.36828125 -1.40007812 7.4865625 -1.31640625 6.578125 C-1 4 -1 4 0 0 Z " fill="#F7F7F8" transform="translate(173,154)"/>
<path d="M0 0 C5.94 0 11.88 0 18 0 C17.125 9.75 17.125 9.75 16 12 C15.34 12 14.68 12 14 12 C13.875 4.25 13.875 4.25 15 2 C10.38 2 5.76 2 1 2 C0.67 1.34 0.34 0.68 0 0 Z " fill="#F4F4F5" transform="translate(114,82)"/>
<path d="M0 0 C4.62 0 9.24 0 14 0 C11.9957983 4.0084034 10.50944037 5.41409657 7 8 C5.83035398 6.8572081 4.66435444 5.71068285 3.5 4.5625 C2.8503125 3.92441406 2.200625 3.28632812 1.53125 2.62890625 C0 1 0 1 0 0 Z " fill="#010101" transform="translate(136,104)"/>
<path d="M0 0 C0.74362793 0.01047363 1.48725586 0.02094727 2.25341797 0.03173828 C3.46191406 0.04140625 3.46191406 0.04140625 4.69482422 0.05126953 C5.95746094 0.07640625 5.95746094 0.07640625 7.24560547 0.10205078 C8.51984375 0.11558594 8.51984375 0.11558594 9.81982422 0.12939453 C11.9202043 0.15299431 14.02043991 0.18886595 16.12060547 0.22705078 C16.12060547 0.55705078 16.12060547 0.88705078 16.12060547 1.22705078 C8.20060547 1.72205078 8.20060547 1.72205078 0.12060547 2.22705078 C7.05060547 2.72205078 7.05060547 2.72205078 14.12060547 3.22705078 C14.12060547 3.55705078 14.12060547 3.88705078 14.12060547 4.22705078 C9.17060547 4.22705078 4.22060547 4.22705078 -0.87939453 4.22705078 C-1.20939453 6.53705078 -1.53939453 8.84705078 -1.87939453 11.22705078 C-2.86939453 11.22705078 -3.85939453 11.22705078 -4.87939453 11.22705078 C-4.7652986 9.76782385 -4.63773909 8.30964481 -4.50439453 6.85205078 C-4.43478516 6.03994141 -4.36517578 5.22783203 -4.29345703 4.39111328 C-3.75611566 1.58274421 -2.92738311 0.35365891 0 0 Z " fill="#BDBEC7" transform="translate(114.87939453125,80.77294921875)"/>
<path d="M0 0 C0.66 0.33 1.32 0.66 2 1 C2 2.32 2 3.64 2 5 C6.62 5 11.24 5 16 5 C16 5.33 16 5.66 16 6 C12.04 6 8.08 6 4 6 C4 6.66 4 7.32 4 8 C8.29 8 12.58 8 17 8 C17 8.33 17 8.66 17 9 C14.20807795 9.05380578 11.4171859 9.09357669 8.625 9.125 C7.8309375 9.14175781 7.036875 9.15851563 6.21875 9.17578125 C4.14507985 9.19335473 2.07116759 9.10335168 0 9 C-0.66 8.34 -1.32 7.68 -2 7 C-1.43181818 1.43181818 -1.43181818 1.43181818 0 0 Z " fill="#BCBCC5" transform="translate(99,149)"/>
<path d="M0 0 C-0.51537952 7.13393752 -1.44005901 14.01812817 -3 21 C-3.99 20.34 -4.98 19.68 -6 19 C-5.69112547 16.56199034 -5.37805338 14.12464633 -5.0625 11.6875 C-4.97548828 10.99720703 -4.88847656 10.30691406 -4.79882812 9.59570312 C-4.40789865 6.59857712 -3.9584996 3.87549881 -3 1 C-1 0 -1 0 0 0 Z " fill="#EBEBEE" transform="translate(112,91)"/>
<path d="M0 0 C0.66 0.99 1.32 1.98 2 3 C2.66 3.969375 3.32 4.93875 4 5.9375 C5.52126809 8.26694176 6.83844133 10.48328954 8 13 C5.00463298 11.97301702 2.92348598 10.93841555 0.4375 8.9375 C-2.03448358 6.69826869 -2.03448358 6.69826869 -6 6 C-4.02 4.02 -2.04 2.04 0 0 Z " fill="#9597B9" transform="translate(247,240)"/>
<path d="M0 0 C0.99 0.33 1.98 0.66 3 1 C3.32712342 7.13053511 3.39366878 11.62669111 0 17 C-0.66 17 -1.32 17 -2 17 C-1.34 11.39 -0.68 5.78 0 0 Z " fill="#E9EAEB" transform="translate(83,118)"/>
<path d="M0 0 C11.52164009 -0.18451025 11.52164009 -0.18451025 17 1 C16.67 1.66 16.34 2.32 16 3 C11.38 3 6.76 3 2 3 C1.67 3.99 1.34 4.98 1 6 C0.67 6 0.34 6 0 6 C0 4.02 0 2.04 0 0 Z " fill="#F9F9FA" transform="translate(123,114)"/>
<path d="M0 0 C-1.86502588 2.62799102 -3.30410791 3.86365751 -6.4921875 4.48828125 C-8.9964272 4.72593573 -11.48653979 4.9040664 -14 5 C-14.33 4.01 -14.66 3.02 -15 2 C-13.06524329 1.46906676 -11.12706845 0.95057683 -9.1875 0.4375 C-8.10855469 0.14746094 -7.02960938 -0.14257812 -5.91796875 -0.44140625 C-3 -1 -3 -1 0 0 Z " fill="#EAEBEE" transform="translate(85,152)"/>
<path d="M0 0 C6.34507042 -0.35915493 6.34507042 -0.35915493 8.9375 1.0625 C10.60000982 4.09413555 10.29734156 6.61030622 10 10 C9 12.4375 9 12.4375 8 14 C5.50494038 11.50494038 5.64051624 10.32671112 5.375 6.875 C5.30023438 5.96492188 5.22546875 5.05484375 5.1484375 4.1171875 C5.09945312 3.41851562 5.05046875 2.71984375 5 2 C3.35 1.67 1.7 1.34 0 1 C0 0.67 0 0.34 0 0 Z " fill="#DFDFE0" transform="translate(134,114)"/>
<path d="M0 0 C-0.11487748 1.58409994 -0.24234508 3.16728963 -0.375 4.75 C-0.44460937 5.63171875 -0.51421875 6.5134375 -0.5859375 7.421875 C-0.99850055 9.99066382 -1.71160957 11.75841015 -3 14 C-4.73173737 11.47454967 -5.91034067 9.45950406 -6.5 6.4375 C-6 4 -6 4 -3.5625 1.6875 C-1 0 -1 0 0 0 Z " fill="#E2E2E2" transform="translate(164,121)"/>
<path d="M0 0 C5.28 0 10.56 0 16 0 C16 0.66 16 1.32 16 2 C9.565 2.495 9.565 2.495 3 3 C2.34 4.65 1.68 6.3 1 8 C0.67 8 0.34 8 0 8 C0 5.36 0 2.72 0 0 Z " fill="#FCFCFC" transform="translate(181,114)"/>
<path d="M0 0 C0.33 0 0.66 0 1 0 C1.144375 0.78375 1.28875 1.5675 1.4375 2.375 C1.87798925 4.96421018 1.87798925 4.96421018 3 7 C2.75378093 8.88484944 2.43111913 10.76022087 2.0625 12.625 C1.86785156 13.62789062 1.67320313 14.63078125 1.47265625 15.6640625 C1.31667969 16.43492187 1.16070312 17.20578125 1 18 C0.01 17.34 -0.98 16.68 -2 16 C-1.85764543 14.27054347 -1.71095618 12.54144346 -1.5625 10.8125 C-1.48128906 9.84957031 -1.40007812 8.88664062 -1.31640625 7.89453125 C-1.02333849 5.21350398 -0.57296246 2.6337014 0 0 Z " fill="#E0E1E4" transform="translate(122,114)"/>
<path d="M0 0 C0.33 0 0.66 0 1 0 C1.144375 0.78375 1.28875 1.5675 1.4375 2.375 C1.87798925 4.96421018 1.87798925 4.96421018 3 7 C2.59373098 8.89213403 2.10271265 10.76666849 1.5625 12.625 C1.13130859 14.12933594 1.13130859 14.12933594 0.69140625 15.6640625 C0.46324219 16.43492187 0.23507813 17.20578125 0 18 C-0.66 18 -1.32 18 -2 18 C-2.27560214 11.79895188 -1.22899346 6.06815522 0 0 Z " fill="#F3F3F3" transform="translate(180,116)"/>
<path d="M0 0 C0.33 0.66 0.66 1.32 1 2 C1.66 2 2.32 2 3 2 C2.34 6.95 1.68 11.9 1 17 C-2.38184132 12.49087824 -2.38184132 12.49087824 -1.75 7.9375 C-1.64171875 7.08027344 -1.5334375 6.22304687 -1.421875 5.33984375 C-1 3 -1 3 0 0 Z " fill="#DADBE0" transform="translate(60,120)"/>
<path d="M0 0 C0.33 0 0.66 0 1 0 C1.04254356 1.99954746 1.04080783 4.00041636 1 6 C0 7 0 7 -3.37890625 7.09765625 C-4.77347077 7.09098369 -6.16801743 7.07902532 -7.5625 7.0625 C-8.27341797 7.05798828 -8.98433594 7.05347656 -9.71679688 7.04882812 C-11.47790013 7.03700864 -13.23896036 7.01907263 -15 7 C-15.33 6.34 -15.66 5.68 -16 5 C-11.05 5 -6.1 5 -1 5 C-0.67 3.35 -0.34 1.7 0 0 Z " fill="#FEFEFE" transform="translate(52,168)"/>
<path d="M0 0 C0.33 0 0.66 0 1 0 C0.4618629 5.69051363 -0.1400133 11.34865884 -1 17 C-1.99 16.34 -2.98 15.68 -4 15 C-3.63495936 9.33557626 -2.9445679 4.99296295 0 0 Z " fill="#EEEEF0" transform="translate(156,156)"/>
<path d="M0 0 C0.33 0 0.66 0 1 0 C1.04254356 1.99954746 1.04080783 4.00041636 1 6 C0 7 0 7 -3.16015625 7.09765625 C-5.09181641 7.08025391 -5.09181641 7.08025391 -7.0625 7.0625 C-8.35285156 7.05347656 -9.64320312 7.04445312 -10.97265625 7.03515625 C-11.97167969 7.02355469 -12.97070312 7.01195312 -14 7 C-14 6.34 -14 5.68 -14 5 C-13.15695313 4.97421875 -12.31390625 4.9484375 -11.4453125 4.921875 C-10.34960938 4.86515625 -9.25390625 4.8084375 -8.125 4.75 C-7.03445312 4.70359375 -5.94390625 4.6571875 -4.8203125 4.609375 C-1.8667935 4.31153872 -1.8667935 4.31153872 -0.6171875 1.953125 C-0.41351563 1.30859375 -0.20984375 0.6640625 0 0 Z " fill="#FCFCFD" transform="translate(117,150)"/>
<path d="M0 0 C3.97256398 2.09663099 6.43898489 4.30075595 9 8 C9 8.66 9 9.32 9 10 C8.01 10.33 7.02 10.66 6 11 C5.443125 9.8553125 5.443125 9.8553125 4.875 8.6875 C2.6369085 5.47956885 0.55788567 4.5022184 -3 3 C-2.01 2.01 -1.02 1.02 0 0 Z " fill="#E8E8EA" transform="translate(153,102)"/>
<path d="M0 0 C0.33 0 0.66 0 1 0 C1.56229448 10.72524662 1.56229448 10.72524662 -2 15 C-2.33 15 -2.66 15 -3 15 C-2.88529863 13.24929483 -2.75780972 11.49942464 -2.625 9.75 C-2.55539063 8.77546875 -2.48578125 7.8009375 -2.4140625 6.796875 C-2.01534751 4.10366811 -1.36492937 2.33036721 0 0 Z " fill="#EFF0F2" transform="translate(37,150)"/>
<path d="M0 0 C0.66 0.66 1.32 1.32 2 2 C-0.31 4.64 -2.62 7.28 -5 10 C-5.99 9.67 -6.98 9.34 -8 9 C-6.4169423 4.7257442 -3.49431596 2.73468206 0 0 Z " fill="#D4D4D6" transform="translate(253,2)"/>
<path d="M0 0 C5.66153846 1.47692308 5.66153846 1.47692308 7.375 4.125 C7.684375 5.053125 7.684375 5.053125 8 6 C7.17242187 5.68289062 6.34484375 5.36578125 5.4921875 5.0390625 C1.68152181 3.90524027 -1.93226312 3.55838311 -5.875 3.375 C-6.56335938 3.33632812 -7.25171875 3.29765625 -7.9609375 3.2578125 C-9.64023246 3.16451834 -11.32007767 3.08121762 -13 3 C-13 2.67 -13 2.34 -13 2 C-8.71 2 -4.42 2 0 2 C0 1.34 0 0.68 0 0 Z " fill="#D6D7E1" transform="translate(197,114)"/>
<path d="M0 0 C5.61 0 11.22 0 17 0 C16.67 0.66 16.34 1.32 16 2 C7.585 2.495 7.585 2.495 -1 3 C-0.67 2.01 -0.34 1.02 0 0 Z " fill="#FDFDFD" transform="translate(166,100)"/>
<path d="M0 0 C0 0.66 0 1.32 0 2 C-3.00313748 3.50156874 -5.79067522 3.09281204 -9.125 3.0625 C-10.40632812 3.05347656 -11.68765625 3.04445312 -13.0078125 3.03515625 C-14.48894531 3.01775391 -14.48894531 3.01775391 -16 3 C-16.33 2.34 -16.66 1.68 -17 1 C-14.9168207 0.83141902 -12.83344956 0.66520745 -10.75 0.5 C-9.58984375 0.4071875 -8.4296875 0.314375 -7.234375 0.21875 C-4.82731342 0.05595356 -2.41256049 0 0 0 Z " fill="#FAFAFB" transform="translate(196,139)"/>
<path d="M0 0 C1.5625 1 1.5625 1 3 3 C2.96726452 5.76614782 2.49404328 8.26030547 2 11 C1.34 10.67 0.68 10.34 0 10 C-0.66 10.99 -1.32 11.98 -2 13 C-1.85769192 11.58297487 -1.71099254 10.1663904 -1.5625 8.75 C-1.48128906 7.96109375 -1.40007812 7.1721875 -1.31640625 6.359375 C-1.02365007 4.17635361 -0.57935581 2.1226818 0 0 Z " fill="#CACBD0" transform="translate(117,141)"/>
<path d="M0 0 C0.33 0.66 0.66 1.32 1 2 C1.66 2 2.32 2 3 2 C3 3.98 3 5.96 3 8 C2.34 7.67 1.68 7.34 1 7 C-1.71760108 6.92818179 -4.40859388 6.90700494 -7.125 6.9375 C-8.25615234 6.94426758 -8.25615234 6.94426758 -9.41015625 6.95117188 C-11.27347127 6.96296501 -13.13674555 6.98090058 -15 7 C-15 6.67 -15 6.34 -15 6 C-10.05 6 -5.1 6 0 6 C0 4.02 0 2.04 0 0 Z " fill="#A8A8AA" transform="translate(170,166)"/>
<path d="M0 0 C0.33 1.32 0.66 2.64 1 4 C1.66 4 2.32 4 3 4 C2.51421457 7.12290635 2.0013988 9.99580359 1 13 C0.01 13 -0.98 13 -2 13 C-1.34 8.71 -0.68 4.42 0 0 Z " fill="#CCCCCD" transform="translate(127,90)"/>
<path d="M0 0 C4.48071284 0.84743917 6.63834347 3.02034989 10 6 C9.01 7.485 9.01 7.485 8 9 C7.34 9 6.68 9 6 9 C4.4921875 7.03125 4.4921875 7.03125 2.875 4.5 C2.33617187 3.6646875 1.79734375 2.829375 1.2421875 1.96875 C0.83226562 1.3190625 0.42234375 0.669375 0 0 Z " fill="#D5D5D6" transform="translate(3,2)"/>
<path d="M0 0 C1.5625 1.4375 1.5625 1.4375 3 4 C2.96846324 7.05380927 2.53266629 9.99653222 2 13 C1.01 12.67 0.02 12.34 -1 12 C-1.08159574 7.83861737 -0.98248524 4.0527516 0 0 Z " fill="#D4D5DC" transform="translate(41,121)"/>
<path d="M0 0 C0.33 0 0.66 0 1 0 C1.05447047 1.41623216 1.09300508 2.83308191 1.125 4.25 C1.14820313 5.03890625 1.17140625 5.8278125 1.1953125 6.640625 C0.9828378 9.20731941 0.28654105 10.7916067 -1 13 C-1.66 12.67 -2.32 12.34 -3 12 C-2.69230293 10.18667846 -2.37870936 8.37435655 -2.0625 6.5625 C-1.80146484 5.04849609 -1.80146484 5.04849609 -1.53515625 3.50390625 C-1 1 -1 1 0 0 Z " fill="#F5F5F6" transform="translate(223,120)"/>
<path d="M0 0 C1.32 0.66 2.64 1.32 4 2 C3.8125 3.8125 3.8125 3.8125 3 6 C0.4375 7.75 0.4375 7.75 -2 9 C-1.34 6.03 -0.68 3.06 0 0 Z " fill="#0B0B0B" transform="translate(109,110)"/>
<path d="M0 0 C1.2380014 3.57644848 0.74926071 6.33694766 0 10 C-1.32 9.34 -2.64 8.68 -4 8 C-3.50168276 4.31245243 -2.89932357 2.39509338 0 0 Z " fill="#E3E3E3" transform="translate(105,122)"/>
<path d="M0 0 C0.99 0.33 1.98 0.66 3 1 C1.61122646 4.35620271 0.08322035 6.07298728 -3 8 C-3.66 8 -4.32 8 -5 8 C-3.8141763 4.62496331 -2.72426311 2.35277269 0 0 Z " fill="#DBDBDB" transform="translate(8,246)"/>
<path d="M0 0 C0.99 0.33 1.98 0.66 3 1 C3 3.97 3 6.94 3 10 C2.01 10 1.02 10 0 10 C0 6.7 0 3.4 0 0 Z " fill="#F1F1F6" transform="translate(202,119)"/>
<path d="M0 0 C0.33 0.66 0.66 1.32 1 2 C1.66 2 2.32 2 3 2 C2.67 4.64 2.34 7.28 2 10 C1.01 10 0.02 10 -1 10 C-0.67 6.7 -0.34 3.4 0 0 Z " fill="#E8E8EB" transform="translate(172,158)"/>
<path d="M0 0 C0.33 1.32 0.66 2.64 1 4 C1.66 4 2.32 4 3 4 C2.67 6.64 2.34 9.28 2 12 C1.01 11.34 0.02 10.68 -1 10 C-0.67 6.7 -0.34 3.4 0 0 Z " fill="#CECFD6" transform="translate(52,159)"/>
<path d="M0 0 C0.33 0 0.66 0 1 0 C1.14285714 7.42857143 1.14285714 7.42857143 0 11 C-0.66 11 -1.32 11 -2 11 C-2.25 3.375 -2.25 3.375 0 0 Z " fill="#F8F8F9" transform="translate(141,125)"/>
<path d="M0 0 C0.1953125 6.0546875 0.1953125 6.0546875 0 8 C-0.66 8.66 -1.32 9.32 -2 10 C-3 9 -3 9 -3.09765625 7.15234375 C-3.06510417 5.1015625 -3.03255208 3.05078125 -3 1 C-1 0 -1 0 0 0 Z " fill="#EDEDF1" transform="translate(45,115)"/>
<path d="M0 0 C2.04119788 1.61594832 4.04072937 3.2856382 6 5 C6 5.66 6 6.32 6 7 C1.32307692 5.52307692 1.32307692 5.52307692 -0.3125 2.875 C-0.539375 2.25625 -0.76625 1.6375 -1 1 C-0.67 0.67 -0.34 0.34 0 0 Z " fill="#E1E1E1" transform="translate(249,246)"/>
<path d="M0 0 C0.33 1.32 0.66 2.64 1 4 C1.66 4 2.32 4 3 4 C2.67 6.97 2.34 9.94 2 13 C0.4375 11.5625 0.4375 11.5625 -1 9 C-0.96846324 5.94619073 -0.53266629 3.00346778 0 0 Z " fill="#D5D5DB" transform="translate(37,142)"/>
<path d="M0 0 C1.32 0 2.64 0 4 0 C3.67 2.64 3.34 5.28 3 8 C2.01 7.34 1.02 6.68 0 6 C-0.1875 2.875 -0.1875 2.875 0 0 Z " fill="#CFCFD5" transform="translate(135,146)"/>
<path d="M0 0 C0.33 0 0.66 0 1 0 C1.144375 0.78375 1.28875 1.5675 1.4375 2.375 C1.87798925 4.96421018 1.87798925 4.96421018 3 7 C2.71887936 9.00800456 2.38932033 11.01014051 2 13 C0.4375 11.5625 0.4375 11.5625 -1 9 C-0.96846324 5.94619073 -0.53266629 3.00346778 0 0 Z " fill="#C3C4C9" transform="translate(122,114)"/>
<path d="M0 0 C0 0.99 0 1.98 0 3 C-1.98 3 -3.96 3 -6 3 C-6.33 2.01 -6.66 1.02 -7 0 C-3.86650268 -1.04449911 -3.01031744 -0.93423645 0 0 Z " fill="#C8C8CE" transform="translate(77,154)"/>
<path d="M0 0 C1.32 0 2.64 0 4 0 C3.25 2.9375 3.25 2.9375 2 6 C-0.125 6.875 -0.125 6.875 -2 7 C-1.34 4.69 -0.68 2.38 0 0 Z " fill="#DBDBDF" transform="translate(219,132)"/>
<path d="M0 0 C3.375 -0.1875 3.375 -0.1875 7 0 C7.66 0.99 8.32 1.98 9 3 C8.34 3 7.68 3 7 3 C7 5.31 7 7.62 7 10 C6.67 10 6.34 10 6 10 C5.67 7.36 5.34 4.72 5 2 C3.35 1.67 1.7 1.34 0 1 C0 0.67 0 0.34 0 0 Z " fill="#C9CAD4" transform="translate(134,114)"/>
<path d="M0 0 C0.33 0 0.66 0 1 0 C1 1.65 1 3.3 1 5 C1.66 5.33 2.32 5.66 3 6 C2.67 7.98 2.34 9.96 2 12 C1.01 11.34 0.02 10.68 -1 10 C-0.67 6.7 -0.34 3.4 0 0 Z " fill="#DCDCE2" transform="translate(107,100)"/>
<path d="M0 0 C3.25543229 0.34879632 4.01873107 1.02133261 6.25 3.5625 C6.8275 4.366875 7.405 5.17125 8 6 C7.67 6.66 7.34 7.32 7 8 C5.83035398 6.8572081 4.66435444 5.71068285 3.5 4.5625 C2.8503125 3.92441406 2.200625 3.28632813 1.53125 2.62890625 C0 1 0 1 0 0 Z " fill="#7B7FB7" transform="translate(240,8)"/>
<path d="M0 0 C-2.17424117 2.50037734 -3.73045798 3.43628586 -7 4 C-6.625 2.0625 -6.625 2.0625 -6 0 C-3.50907189 -1.24546405 -2.58919267 -0.7767578 0 0 Z " fill="#EFEFF2" transform="translate(208,151)"/>
<path d="M0 0 C0.125 2.875 0.125 2.875 0 6 C-0.66 6.66 -1.32 7.32 -2 8 C-3 7 -3 7 -3.0625 3.9375 C-3.041875 2.968125 -3.02125 1.99875 -3 1 C-1 0 -1 0 0 0 Z " fill="#EAEAEA" transform="translate(60,132)"/>
<path d="M0 0 C1.65 1.32 3.3 2.64 5 4 C4.67 4.99 4.34 5.98 4 7 C3.34 7 2.68 7 2 7 C2 6.01 2 5.02 2 4 C1.34 4 0.68 4 0 4 C0 2.68 0 1.36 0 0 Z " fill="#CCCCCC" transform="translate(153,150)"/>
<path d="M0 0 C1.53445094 3.06890187 0.54984289 5.70094266 0 9 C-0.33 8.01 -0.66 7.02 -1 6 C-1.99 5.67 -2.98 5.34 -4 5 C-2.68 3.35 -1.36 1.7 0 0 Z " fill="#7D81B5" transform="translate(98,143)"/>
<path d="M0 0 C0.33 0 0.66 0 1 0 C1.144375 0.78375 1.28875 1.5675 1.4375 2.375 C1.87798925 4.96421018 1.87798925 4.96421018 3 7 C2.72057545 8.67654729 2.39171753 10.34608154 2 12 C1.67 10.68 1.34 9.36 1 8 C0.34 8 -0.32 8 -1 8 C-0.67 5.36 -0.34 2.72 0 0 Z " fill="#C9CAD0" transform="translate(180,116)"/>
<path d="M0 0 C0 3 0 3 -2.5 5.6875 C-3.325 6.450625 -4.15 7.21375 -5 8 C-5.66 7.67 -6.32 7.34 -7 7 C-4.69 4.69 -2.38 2.38 0 0 Z " fill="#F3F4F8" transform="translate(216,142)"/>
<path d="M0 0 C0.33 0.99 0.66 1.98 1 3 C-1.475 4.485 -1.475 4.485 -4 6 C-4 5.34 -4 4.68 -4 4 C-4.66 3.67 -5.32 3.34 -6 3 C-4.02 2.01 -2.04 1.02 0 0 Z " fill="#DDDDDE" transform="translate(200,135)"/>
</svg>
