<?xml version="1.0" encoding="UTF-8"?>
<svg version="1.1" xmlns="http://www.w3.org/2000/svg" width="64" height="64">
<path d="M0 0 C2.03667615 1.54506466 2.86073078 2.72146156 4 5 C5.39767563 17.57908066 -2.71946912 29.09004816 -10.05078125 38.68359375 C-12.14657443 41.17418564 -14.45159723 42.98810307 -17 45 C-19.49118953 48.7367843 -19.2065226 50.74451819 -19.125 55.1875 C-19.10695312 56.45980469 -19.08890625 57.73210938 -19.0703125 59.04296875 C-19.04710937 60.01878906 -19.02390625 60.99460938 -19 62 C-19.66 62 -20.32 62 -21 62 C-21.33 59.69 -21.66 57.38 -22 55 C-22.83772949 55.01047363 -23.67545898 55.02094727 -24.53857422 55.03173828 C-27.64338164 55.06580019 -30.74809392 55.09088911 -33.85302734 55.10986328 C-35.8591136 55.12488107 -37.86511324 55.15028981 -39.87109375 55.17578125 C-41.12792969 55.18222656 -42.38476562 55.18867187 -43.6796875 55.1953125 C-44.84226074 55.20578613 -46.00483398 55.21625977 -47.20263672 55.22705078 C-50 55 -50 55 -52 53 C-52.25396729 50.95068359 -52.25396729 50.95068359 -52.25878906 48.3984375 C-52.26509338 47.44404785 -52.27139771 46.4896582 -52.27789307 45.50634766 C-52.2738446 44.47300293 -52.26979614 43.4396582 -52.265625 42.375 C-52.26753845 41.31716309 -52.2694519 40.25932617 -52.27142334 39.16943359 C-52.27278602 36.93001061 -52.26908382 34.69057974 -52.26074219 32.45117188 C-52.25004402 29.01414323 -52.26063488 25.5776373 -52.2734375 22.140625 C-52.27211592 19.96874884 -52.26955356 17.79687301 -52.265625 15.625 C-52.27169769 14.07498291 -52.27169769 14.07498291 -52.27789307 12.49365234 C-52.27158875 11.5392627 -52.26528442 10.58487305 -52.25878906 9.6015625 C-52.25719788 8.75932129 -52.25560669 7.91708008 -52.25396729 7.04931641 C-52 5 -52 5 -50 3 C-46.95338105 2.77816706 -43.99070372 2.67459638 -40.94140625 2.65625 C-40.04131332 2.6416272 -39.1412204 2.62700439 -38.21385193 2.61193848 C-35.33011312 2.56533361 -32.44644431 2.53119334 -29.5625 2.5 C-25.77187753 2.45892465 -21.98174595 2.40526203 -18.19140625 2.34375 C-17.31633926 2.3384729 -16.44127228 2.3331958 -15.53968811 2.32775879 C-14.31843483 2.30763733 -14.31843483 2.30763733 -13.07250977 2.28710938 C-12.35684341 2.27981812 -11.64117706 2.27252686 -10.90382385 2.26501465 C-6.59365771 1.66503416 -4.81009252 -0.5010513 0 0 Z M-13 22 C-12 24 -12 24 -12 24 Z M-16 29 C-15 31 -15 31 -15 31 Z M-17 32 C-16 34 -16 34 -16 34 Z M-18 35 C-17 37 -17 37 -17 37 Z M-19 39 C-18 41 -18 41 -18 41 Z " fill="#45A3DC" transform="translate(56,1)"/>
<path d="M0 0 C2.03667615 1.54506466 2.86073078 2.72146156 4 5 C5.39767563 17.57908066 -2.71946912 29.09004816 -10.05078125 38.68359375 C-12.14657443 41.17418564 -14.45159723 42.98810307 -17 45 C-19.49118953 48.7367843 -19.2065226 50.74451819 -19.125 55.1875 C-19.09792969 57.09595703 -19.09792969 57.09595703 -19.0703125 59.04296875 C-19.04710937 60.01878906 -19.02390625 60.99460938 -19 62 C-19.66 62 -20.32 62 -21 62 C-25.74298801 44.11030706 -24.32269615 28.40245824 -15.4375 12.0625 C-14.63866681 10.70022648 -13.8272091 9.34523185 -13 8 C-12.45666016 7.1028125 -12.45666016 7.1028125 -11.90234375 6.1875 C-8.6687472 1.07276173 -6.09589682 -0.63498925 0 0 Z M-13 22 C-12 24 -12 24 -12 24 Z M-16 29 C-15 31 -15 31 -15 31 Z M-17 32 C-16 34 -16 34 -16 34 Z M-18 35 C-17 37 -17 37 -17 37 Z M-19 39 C-18 41 -18 41 -18 41 Z " fill="#003B58" transform="translate(56,1)"/>
<path d="M0 0 C1.72447904 0.00031742 3.44897767 0.01165954 5.17333984 0.03173828 C6.53415176 0.03598312 6.53415176 0.03598312 7.92245483 0.04031372 C10.82652857 0.05152926 13.73029646 0.07663615 16.63427734 0.10205078 C18.60041873 0.11207881 20.56656494 0.12120497 22.53271484 0.12939453 C27.35835393 0.15147306 32.18376374 0.18601213 37.00927734 0.22705078 C37.00927734 0.55705078 37.00927734 0.88705078 37.00927734 1.22705078 C35.83308838 1.25210693 34.65689941 1.27716309 33.44506836 1.30297852 C29.09713112 1.39687885 24.74936018 1.49714126 20.40161133 1.59936523 C18.51688516 1.64278012 16.63211799 1.68445021 14.74731445 1.72436523 C12.04414486 1.78190971 9.34118298 1.84564882 6.63818359 1.91064453 C5.79026749 1.92735703 4.94235138 1.94406952 4.06874084 1.96128845 C0.22635658 1.69114273 0.22635658 1.69114273 -2.99072266 3.22705078 C-3.12412281 4.98301708 -3.19415741 6.7438851 -3.23681641 8.50439453 C-3.2696875 9.57496094 -3.30255859 10.64552734 -3.33642578 11.74853516 C-3.39751607 14.02187375 -3.45482129 16.29531729 -3.50830078 18.56884766 C-3.54246094 19.64070313 -3.57662109 20.71255859 -3.61181641 21.81689453 C-3.63687256 22.8055249 -3.66192871 23.79415527 -3.68774414 24.81274414 C-3.99072266 27.22705078 -3.99072266 27.22705078 -5.99072266 29.22705078 C-6.04855306 24.76877152 -6.0842612 20.31058798 -6.11572266 15.85205078 C-6.13248047 14.58103516 -6.14923828 13.31001953 -6.16650391 12.00048828 C-6.17294922 10.78876953 -6.17939453 9.57705078 -6.18603516 8.32861328 C-6.20174561 6.64759521 -6.20174561 6.64759521 -6.21777344 4.93261719 C-5.83353043 0.35392791 -4.4617581 0.25385018 0 0 Z " fill="#1182CD" transform="translate(9.99072265625,3.77294921875)"/>
<path d="M0 0 C2 3.75 2 3.75 2 6 C1.34 6 0.68 6 0 6 C0.33 7.65 0.66 9.3 1 11 C0.01 11.66 -0.98 12.32 -2 13 C-1.85851011 11.3954444 -1.71164314 9.79136233 -1.5625 8.1875 C-1.48128906 7.29417969 -1.40007813 6.40085937 -1.31640625 5.48046875 C-1 3 -1 3 0 0 Z " fill="#0E5984" transform="translate(34,28)"/>
</svg>
